<?xml version="1.0" encoding="UTF-8" standalone="no"?>
<svg
   style="fill-opacity:1; color-rendering:auto; color-interpolation:auto; text-rendering:auto; stroke:black; stroke-linecap:square; stroke-miterlimit:10; shape-rendering:auto; stroke-opacity:1; fill:black; stroke-dasharray:none; font-weight:normal; stroke-width:1; font-family:'Dialog'; font-style:normal; stroke-linejoin:miter; font-size:12px; stroke-dashoffset:0; image-rendering:auto;"
   width="840"
   height="630"
   version="1.1"
   id="svg143"
   sodipodi:docname="thickerlines.svg"
   inkscape:version="1.1.1 (3bf5ae0d25, 2021-09-20)"
   xmlns:inkscape="http://www.inkscape.org/namespaces/inkscape"
   xmlns:sodipodi="http://sodipodi.sourceforge.net/DTD/sodipodi-0.dtd"
   xmlns="http://www.w3.org/2000/svg"
   xmlns:svg="http://www.w3.org/2000/svg">
  <sodipodi:namedview
     id="namedview145"
     pagecolor="#ffffff"
     bordercolor="#666666"
     borderopacity="1.0"
     inkscape:pageshadow="2"
     inkscape:pageopacity="0.0"
     inkscape:pagecheckerboard="0"
     showgrid="false"
     inkscape:zoom="1.1412698"
     inkscape:cx="419.70793"
     inkscape:cy="314.56189"
     inkscape:window-width="3840"
     inkscape:window-height="2054"
     inkscape:window-x="-11"
     inkscape:window-y="-11"
     inkscape:window-maximized="1"
     inkscape:current-layer="svg143" />
  <!--Generated by the Batik Graphics2D SVG Generator-->
  <defs
     id="genericDefs">
    <defs
       id="defs1">
      <clipPath
         clipPathUnits="userSpaceOnUse"
         id="clipPath1">
        <path
           d="M0 0 L840 0 L840 630 L0 630 L0 0 Z"
           id="path3" />
      </clipPath>
    </defs>
  </defs>
  <g
     style="fill:#ffffff;stroke:#ffffff"
     id="g9">
    <rect
       x="0"
       y="0"
       width="840"
       style="stroke:none"
       height="630"
       clip-path="url(#clipPath1)"
       id="rect7" />
  </g>
  <g
     style="color-interpolation:sRGB;fill:#ffffff;stroke:#ffffff;color-rendering:optimizeSpeed;image-rendering:optimizeSpeed;shape-rendering:crispEdges;text-rendering:optimizeSpeed"
     id="g15">
    <rect
       x="0"
       width="840"
       height="630"
       y="0"
       style="stroke:none"
       id="rect11" />
    <path
       d="M 229.5556,424.5555 H 470.6667 V 183.4444 H 229.5556 Z"
       style="fill:#ececec;stroke:none"
       id="path13" />
  </g>
  <g
     style="color-interpolation:linearRGB;color-rendering:optimizeQuality;image-rendering:optimizeQuality;text-rendering:geometricPrecision"
     id="g21">
    <path
       d="M 229.5556,424.5555 H 470.6667 V 183.4444 H 229.5556 v 241.1111"
       style="fill:none;fill-rule:evenodd"
       id="path17" />
    <line
       x1="583.00647"
       x2="117.2157"
       y1="366.40411"
       style="fill:none;stroke-width:1.7;stroke-linecap:butt;stroke-linejoin:round"
       y2="241.5959"
       id="line19" />
  </g>
  <g
     style="color-interpolation:linearRGB;fill:#0072bd;stroke:#0072bd;stroke-width:1.7;stroke-linecap:butt;stroke-linejoin:round;color-rendering:optimizeQuality;image-rendering:optimizeQuality;text-rendering:geometricPrecision"
     id="g25">
    <path
       d="m 350.1111,304 v -72.3333 30.1388 l -0.3707,0.002 -0.3706,0.005 -0.3706,0.008 -0.3705,0.0114 -0.3704,0.0147 -0.3703,0.0179 -0.3701,0.0211 -0.3699,0.0244 -0.3696,0.0277 -0.3694,0.0309 -0.3691,0.0341 -0.3688,0.0374 -0.3685,0.0406 -0.368,0.0439 -0.3677,0.0471 -0.3673,0.0503 -0.3668,0.0536 -0.3663,0.0567 -0.3658,0.06 -0.3653,0.0632 -0.3646,0.0664 -0.3641,0.0696 -0.3635,0.0728 -0.3628,0.076 -0.3622,0.0792 -0.3614,0.0823 -0.3607,0.0855 -0.3599,0.0887 -0.3591,0.0918 -0.3583,0.095 -0.3575,0.0982 -0.3565,0.1013 -0.3557,0.1044 -0.3548,0.1075 -0.3538,0.1106 -0.3528,0.1138 -0.3518,0.1168 -0.3507,0.1199 -0.3497,0.123 -0.3486,0.1261 -0.3475,0.1291 -0.3463,0.1322 -0.3451,0.1352 -0.344,0.1383 -0.3427,0.1412 -0.3415,0.1443 -0.3401,0.1472 -0.3389,0.1503 -0.3376,0.1532 -0.3361,0.1561 -0.3348,0.1591 -0.3334,0.1621 -0.332,0.165 -0.3305,0.1678 -0.329,0.1708 -0.3275,0.1737 -0.3259,0.1765 -0.3244,0.1794 -0.3228,0.1822 -0.3212,0.1851 -0.3195,0.1879 -0.3179,0.1907 -0.3162,0.1934 -0.3145,0.1962 -0.3128,0.199 -0.311,0.2017 -0.3092,0.2045 -0.3074,0.2072 -0.3055,0.2098 -0.3037,0.2126 -0.3019,0.2151 -0.2999,0.2179 -0.298,0.2204 -0.296,0.2231 -0.2941,0.2257 -0.2921,0.2282 -0.2901,0.2308 -0.288,0.2333 -0.286,0.2359 -0.2839,0.2383 -0.2818,0.2408 -0.2796,0.2434 -0.2776,0.2457 -0.2753,0.2482 -0.2732,0.2506 -0.2709,0.253 -0.2687,0.2553 -0.2665,0.2577 -0.2641,0.2601 -0.2619,0.2623 -0.2596,0.2646 -0.2572,0.2669 -0.2549,0.2692 -0.2525,0.2714 -0.2501,0.2736 -0.2477,0.2757 -0.2453,0.278 -0.2428,0.2801 -0.2403,0.2822 -0.2379,0.2843 -0.2353,0.2864 -0.2329,0.2884 -0.2303,0.2905 -0.2277,0.2925 -0.2251,0.2945 -0.2226,0.2964 -0.2199,0.2984 -0.2173,0.3003 -0.2147,0.3022 -0.212,0.3041 -0.2093,0.306 -0.2066,0.3077 -0.2039,0.3096 -0.2012,0.3113 -0.1984,0.3132 -0.1957,0.3148 -0.1929,0.3165 -0.1901,0.3182 -0.1873,0.3199 -0.1845,0.3215 -0.1817,0.3231 -0.1788,0.3248 -0.176,0.3262 -0.1731,0.3278 -0.1702,0.3293 -0.1673,0.3308 -0.1644,0.3322 -0.1614,0.3337 -0.1585,0.3351 -0.1556,0.3364 -0.1526,0.3378 -0.1497,0.3392 -0.1466,0.3404 -0.1437,0.3417 -0.1406,0.343 -0.1377,0.3442 -0.1346,0.3454 -0.1315,0.3465 -0.1285,0.3477 -0.1255,0.3488 -0.1224,0.3499 -0.1193,0.351 -0.1162,0.352 -0.1131,0.353 -0.1101,0.354 -0.1069,0.3549 -0.1037,0.3559 -0.1007,0.3567 -0.0975,0.3577"
       style="fill:none;fill-rule:evenodd"
       id="path23" />
  </g>
  <g
     transform="translate(308,264)"
     style="font-size:20px;font-family:mwb_cmmi10;color-interpolation:linearRGB;fill:#0072bd;stroke:#0072bd;color-rendering:optimizeQuality;image-rendering:optimizeQuality;text-rendering:geometricPrecision"
     id="g29">
    <path
       style="stroke:none"
       d="m 3.2188,0.2188 q -0.9063,0 -1.4532,-0.6641 Q 1.2188,-1.1094 1.0078,-2.0469 0.7969,-2.9844 0.7969,-3.8906 v -0.0313 q 0,-0.9843 0.1953,-2.0625 0.1953,-1.0781 0.5547,-2.1484 0.3593,-1.0703 0.7812,-1.9141 0.2969,-0.5781 0.7578,-1.3047 0.461,-0.7265 1.0313,-1.3515 0.5703,-0.625 1.2266,-1.0157 Q 6,-14.1094 6.6875,-14.1094 h 0.0156 q 0.7188,0 1.2031,0.4063 0.4844,0.4062 0.75,1.0312 0.2657,0.625 0.375,1.336 0.1094,0.7109 0.1094,1.3515 0,1.5156 -0.4062,3.0938 -0.4063,1.5781 -1.1406,3.0468 -0.2657,0.5626 -0.75,1.3126 -0.4844,0.75 -1.0235,1.3437 -0.5391,0.5937 -1.2187,1 Q 3.9219,0.2188 3.25,0.2188 Z m 0.0468,-0.5157 q 0.6563,0 1.2656,-0.7109 0.6094,-0.711 1.0704,-1.7188 0.4609,-1.0078 0.8125,-2.0703 0.3515,-1.0625 0.5078,-1.8125 H 2.8438 q -0.3126,1.2656 -0.4922,2.1797 -0.1797,0.9141 -0.1797,1.7891 0,2.3437 1.0937,2.3437 z M 3,-7.3125 h 4.0938 q 0.2187,-0.875 0.3437,-1.4609 0.125,-0.586 0.2187,-1.2422 0.0938,-0.6563 0.0938,-1.2188 0,-2.3437 -1.0625,-2.3437 -1.2813,0 -2.2031,2.039 Q 3.5625,-9.5 3,-7.3125 Z"
       id="path27" />
  </g>
  <g
     style="color-interpolation:linearRGB;fill:#996633;stroke:#996633;stroke-width:3;stroke-linecap:butt;stroke-linejoin:round;color-rendering:optimizeQuality;image-rendering:optimizeQuality;text-rendering:geometricPrecision"
     id="g79">
    <path
       d="M 184.5603,306.3137 175.3056,304 l 9.2547,-2.3137"
       style="fill:none;fill-rule:evenodd"
       id="path31" />
    <path
       d="m 352.4248,469.5508 -2.3137,9.2548 -2.3137,-9.2548"
       style="fill:none;fill-rule:evenodd"
       id="path33" />
    <path
       d="m 231.8693,348.9952 -2.3137,9.2548 -2.3137,-9.2548"
       style="fill:none;fill-rule:evenodd"
       id="path35" />
    <path
       d="m 305.1159,426.8693 -9.2548,-2.3138 9.2548,-2.3136"
       style="fill:none;fill-rule:evenodd"
       id="path37" />
    <path
       d="m 333.6799,374.2616 -4.6302,8.3406 0.1605,-9.5383"
       style="fill:none;fill-rule:evenodd"
       id="path39" />
    <path
       d="m 313.0707,296.4704 -8.3406,-4.6302 9.5383,0.1604"
       style="fill:none;fill-rule:evenodd"
       id="path41" />
    <line
       y2="304"
       style="fill:none"
       x1="229.5556"
       x2="175.3056"
       y1="304"
       id="line43" />
    <line
       y2="478.8056"
       style="fill:none"
       x1="350.11111"
       x2="350.11111"
       y1="424.55551"
       id="line45" />
    <line
       y2="358.25"
       style="fill:none"
       x1="229.5556"
       x2="229.5556"
       y1="304"
       id="line47" />
    <line
       y2="424.55551"
       style="fill:none"
       x1="350.11111"
       x2="295.86111"
       y1="424.55551"
       id="line49" />
    <line
       y2="382.6022"
       style="fill:none"
       x1="350.11111"
       x2="329.04971"
       y1="304"
       id="line51" />
    <line
       y2="291.84021"
       style="fill:none"
       x1="350.11111"
       x2="304.7301"
       y1="304"
       id="line53" />
    <path
       d="m 515.6619,301.6863 9.2548,2.3137 -9.2548,2.3137"
       style="fill:none;fill-rule:evenodd;stroke:#d95319"
       id="path55" />
    <path
       d="m 347.7974,138.4492 2.3137,-9.2548 2.3137,9.2548"
       style="fill:none;fill-rule:evenodd;stroke:#d95319"
       id="path57" />
    <path
       d="m 468.353,259.0048 2.3137,-9.2548 2.3137,9.2548"
       style="fill:none;fill-rule:evenodd;stroke:#d95319"
       id="path59" />
    <path
       d="m 395.1063,181.1307 9.2548,2.3137 -9.2548,2.3137"
       style="fill:none;fill-rule:evenodd;stroke:#d95319"
       id="path61" />
    <path
       d="m 366.5423,233.7384 4.6302,-8.3406 -0.1604,9.5383"
       style="fill:none;fill-rule:evenodd;stroke:#d95319"
       id="path63" />
    <path
       d="m 387.1515,311.5296 8.3406,4.6302 -9.5382,-0.1604"
       style="fill:none;fill-rule:evenodd;stroke:#d95319"
       id="path65" />
    <line
       x1="470.66669"
       x2="524.91669"
       y1="304"
       style="fill:none;stroke:#d95319"
       y2="304"
       id="line67" />
    <line
       x1="350.11111"
       x2="350.11111"
       y1="183.4444"
       style="fill:none;stroke:#d95319"
       y2="129.1944"
       id="line69" />
    <line
       x1="470.66669"
       x2="470.66669"
       y1="304"
       style="fill:none;stroke:#d95319"
       y2="249.75"
       id="line71" />
    <line
       x1="350.11111"
       x2="404.36111"
       y1="183.4444"
       style="fill:none;stroke:#d95319"
       y2="183.4444"
       id="line73" />
    <line
       x1="350.11111"
       x2="371.17249"
       y1="304"
       style="fill:none;stroke:#d95319"
       y2="225.3978"
       id="line75" />
    <line
       x1="350.11111"
       x2="395.4921"
       y1="304"
       style="fill:none;stroke:#d95319"
       y2="316.15979"
       id="line77" />
  </g>
  <g
     transform="translate(652,206)"
     style="font-size:22px;font-family:mwb_cmmi10;color-interpolation:linearRGB;color-rendering:optimizeQuality;image-rendering:optimizeQuality;text-rendering:geometricPrecision"
     id="g83">
    <path
       style="stroke:none"
       d="m 4.1094,0.25 q -0.9688,0 -1.7266,-0.4688 -0.7578,-0.4687 -1.1719,-1.2656 -0.414,-0.7968 -0.414,-1.75 0,-1.0156 0.4609,-2.1484 0.461,-1.1328 1.2578,-2.0625 0.7969,-0.9297 1.8125,-1.4844 1.0157,-0.5547 2.0781,-0.5547 h 5.5469 q 0.2188,0 0.3828,0.1485 0.1641,0.1484 0.1641,0.414 0,0.3125 -0.2344,0.5547 -0.2344,0.2422 -0.5625,0.2422 H 9.0312 q 0.625,0.9531 0.625,2.2969 0,1.0937 -0.4296,2.1719 Q 8.7969,-2.5781 8.0312,-1.6953 7.2656,-0.8125 6.2578,-0.2812 5.25,0.25 4.1094,0.25 Z m 0.0312,-0.5781 q 1.2032,0 2.1328,-0.9453 0.9297,-0.9454 1.4219,-2.3047 0.4922,-1.3594 0.4922,-2.5157 0,-0.9374 -0.5234,-1.4843 -0.5235,-0.5469 -1.461,-0.5469 -1.2656,0 -2.164,0.8594 -0.8985,0.8594 -1.3438,2.164 -0.4453,1.3047 -0.4453,2.5078 0,0.9376 0.5,1.6016 0.5,0.6641 1.3906,0.6641 z"
       id="path81" />
  </g>
  <g
     transform="translate(665,217)"
     style="font-size:17.6px;color-interpolation:linearRGB;color-rendering:optimizeQuality;image-rendering:optimizeQuality;text-rendering:geometricPrecision"
     id="g87">
    <path
       style="stroke:none"
       d="M 0.125,0 3.5469,-4.8594 0.3906,-9.3281 h 1.9688 l 1.4375,2.1875 q 0.4062,0.625 0.6562,1.0468 0.375,-0.5937 0.7031,-1.0312 L 6.7344,-9.3281 H 8.625 L 5.3906,-4.9375 8.875,0 H 6.9219 L 5.0156,-2.9062 4.5,-3.6875 2.0469,0 Z"
       id="path85" />
  </g>
  <g
     transform="translate(674,206)"
     style="font-size:22px;color-interpolation:linearRGB;color-rendering:optimizeQuality;image-rendering:optimizeQuality;text-rendering:geometricPrecision"
     id="g91">
    <path
       style="stroke:none"
       d="M 17.7373,-9.2656 H 7.3311 v -1.7969 h 10.4062 z m 0,4.7812 H 7.3311 v -1.7968 h 10.4062 z m 8.2412,0.3594 2.0313,-0.1719 q 0.2343,1.4844 1.0547,2.2266 0.8203,0.7422 1.9765,0.7422 1.4063,0 2.3672,-1.0469 0.9609,-1.0469 0.9609,-2.7969 0,-1.6562 -0.9296,-2.6093 -0.9297,-0.9532 -2.4297,-0.9532 -0.9375,0 -1.6875,0.4219 -0.75,0.4219 -1.1719,1.1094 l -1.8281,-0.2344 1.5312,-8.0937 h 7.8281 v 1.8437 h -6.2812 l -0.8438,4.2344 q 1.4219,-0.9844 2.9688,-0.9844 2.0625,0 3.4844,1.4297 1.4218,1.4297 1.4218,3.664 0,2.1407 -1.25,3.7032 -1.5156,1.9062 -4.1406,1.9062 -2.1406,0 -3.5,-1.2031 -1.3594,-1.2031 -1.5625,-3.1875 z M 45.0605,0 v -15.75 h 3.125 l 3.7344,11.1562 q 0.5156,1.5469 0.75,2.3282 0.2656,-0.8594 0.8438,-2.5313 L 57.2793,-15.75 h 2.7969 V 0 h -2 V -13.1875 L 53.498,0 H 51.623 L 47.0605,-13.4062 V 0 Z m 18.3887,0 v -15.75 h 5.9375 q 1.5625,0 2.3906,0.1562 1.1563,0.1876 1.9454,0.7344 0.789,0.5469 1.2656,1.5235 0.4765,0.9765 0.4765,2.1484 0,2 -1.2812,3.3906 -1.2813,1.3907 -4.6094,1.3907 H 65.5273 V 0 Z m 2.0781,-8.2656 h 4.0782 q 2.0156,0 2.8593,-0.75 0.8438,-0.75 0.8438,-2.1094 0,-1 -0.4922,-1.7031 -0.4922,-0.7031 -1.3203,-0.9219 -0.5156,-0.1406 -1.9375,-0.1406 h -4.0313 z m 19.7832,6.8594 q -1.0625,0.9062 -2.0625,1.289 -1,0.3828 -2.1406,0.3828 -1.875,0 -2.8828,-0.9218 -1.0078,-0.9219 -1.0078,-2.3594 0,-0.8282 0.3828,-1.5235 0.3828,-0.6953 1,-1.1093 0.6172,-0.4141 1.3828,-0.6328 0.5781,-0.1563 1.7188,-0.2969 2.3437,-0.2813 3.4531,-0.6563 0.0156,-0.4062 0.0156,-0.5156 0,-1.1719 -0.5469,-1.6562 -0.75,-0.6563 -2.2031,-0.6563 -1.375,0 -2.0234,0.4766 -0.6485,0.4765 -0.961,1.6953 l -1.8906,-0.2656 q 0.2656,-1.2188 0.8516,-1.961 0.5859,-0.7422 1.7031,-1.1484 1.1172,-0.4063 2.6016,-0.4063 1.4531,0 2.3672,0.3438 0.914,0.3437 1.3437,0.8672 0.4297,0.5234 0.6016,1.3203 0.0937,0.5 0.0937,1.7812 v 2.5782 q 0,2.7031 0.125,3.414 0.125,0.711 0.4844,1.3672 H 85.7012 Q 85.4043,-0.6094 85.3105,-1.4062 Z M 85.1543,-5.7188 Q 84.1074,-5.2969 81.998,-5 q -1.1875,0.1719 -1.6875,0.3906 -0.5,0.2188 -0.7656,0.6328 -0.2656,0.4141 -0.2656,0.9141 0,0.7813 0.5859,1.2969 0.586,0.5156 1.711,0.5156 1.125,0 1.9922,-0.4922 0.8671,-0.4922 1.2734,-1.3359 0.3125,-0.6563 0.3125,-1.9375 z"
       id="path89" />
  </g>
  <g
     transform="translate(652,244)"
     style="font-size:22px;font-family:mwb_cmmi10;color-interpolation:linearRGB;color-rendering:optimizeQuality;image-rendering:optimizeQuality;text-rendering:geometricPrecision"
     id="g95">
    <path
       style="stroke:none"
       d="m 4.1094,0.25 q -0.9688,0 -1.7266,-0.4688 -0.7578,-0.4687 -1.1719,-1.2656 -0.414,-0.7968 -0.414,-1.75 0,-1.0156 0.4609,-2.1484 0.461,-1.1328 1.2578,-2.0625 0.7969,-0.9297 1.8125,-1.4844 1.0157,-0.5547 2.0781,-0.5547 h 5.5469 q 0.2188,0 0.3828,0.1485 0.1641,0.1484 0.1641,0.414 0,0.3125 -0.2344,0.5547 -0.2344,0.2422 -0.5625,0.2422 H 9.0312 q 0.625,0.9531 0.625,2.2969 0,1.0937 -0.4296,2.1719 Q 8.7969,-2.5781 8.0312,-1.6953 7.2656,-0.8125 6.2578,-0.2812 5.25,0.25 4.1094,0.25 Z m 0.0312,-0.5781 q 1.2032,0 2.1328,-0.9453 0.9297,-0.9454 1.4219,-2.3047 0.4922,-1.3594 0.4922,-2.5157 0,-0.9374 -0.5234,-1.4843 -0.5235,-0.5469 -1.461,-0.5469 -1.2656,0 -2.164,0.8594 -0.8985,0.8594 -1.3438,2.164 -0.4453,1.3047 -0.4453,2.5078 0,0.9376 0.5,1.6016 0.5,0.6641 1.3906,0.6641 z"
       id="path93" />
  </g>
  <g
     transform="translate(665,255)"
     style="font-size:17.6px;color-interpolation:linearRGB;color-rendering:optimizeQuality;image-rendering:optimizeQuality;text-rendering:geometricPrecision"
     id="g99">
    <path
       style="stroke:none"
       d="M 1.1094,3.5938 0.9375,2.1094 Q 1.4531,2.25 1.8438,2.25 2.375,2.25 2.6875,2.0781 3,1.9062 3.2031,1.5781 3.3594,1.3438 3.6875,0.4062 3.7344,0.2656 3.8281,0.0156 L 0.2969,-9.3281 H 2 l 1.9375,5.4062 q 0.375,1.0157 0.6719,2.1563 0.2812,-1.0938 0.6562,-2.125 l 2,-5.4375 H 8.8438 L 5.2969,0.1562 Q 4.7188,1.7031 4.4062,2.2812 3.9844,3.0625 3.4375,3.4219 2.8906,3.7812 2.1406,3.7812 q -0.4687,0 -1.0312,-0.1874 z"
       id="path97" />
  </g>
  <g
     transform="translate(674,244)"
     style="font-size:22px;color-interpolation:linearRGB;color-rendering:optimizeQuality;image-rendering:optimizeQuality;text-rendering:geometricPrecision"
     id="g103">
    <path
       style="stroke:none"
       d="M 17.7373,-9.2656 H 7.3311 v -1.7969 h 10.4062 z m 0,4.7812 H 7.3311 v -1.7968 h 10.4062 z m 8.2412,0.3594 2.0313,-0.1719 q 0.2343,1.4844 1.0547,2.2266 0.8203,0.7422 1.9765,0.7422 1.4063,0 2.3672,-1.0469 0.9609,-1.0469 0.9609,-2.7969 0,-1.6562 -0.9296,-2.6093 -0.9297,-0.9532 -2.4297,-0.9532 -0.9375,0 -1.6875,0.4219 -0.75,0.4219 -1.1719,1.1094 l -1.8281,-0.2344 1.5312,-8.0937 h 7.8281 v 1.8437 h -6.2812 l -0.8438,4.2344 q 1.4219,-0.9844 2.9688,-0.9844 2.0625,0 3.4844,1.4297 1.4218,1.4297 1.4218,3.664 0,2.1407 -1.25,3.7032 -1.5156,1.9062 -4.1406,1.9062 -2.1406,0 -3.5,-1.2031 -1.3594,-1.2031 -1.5625,-3.1875 z M 45.0605,0 v -15.75 h 3.125 l 3.7344,11.1562 q 0.5156,1.5469 0.75,2.3282 0.2656,-0.8594 0.8438,-2.5313 L 57.2793,-15.75 h 2.7969 V 0 h -2 V -13.1875 L 53.498,0 H 51.623 L 47.0605,-13.4062 V 0 Z m 18.3887,0 v -15.75 h 5.9375 q 1.5625,0 2.3906,0.1562 1.1563,0.1876 1.9454,0.7344 0.789,0.5469 1.2656,1.5235 0.4765,0.9765 0.4765,2.1484 0,2 -1.2812,3.3906 -1.2813,1.3907 -4.6094,1.3907 H 65.5273 V 0 Z m 2.0781,-8.2656 h 4.0782 q 2.0156,0 2.8593,-0.75 0.8438,-0.75 0.8438,-2.1094 0,-1 -0.4922,-1.7031 -0.4922,-0.7031 -1.3203,-0.9219 -0.5156,-0.1406 -1.9375,-0.1406 h -4.0313 z m 19.7832,6.8594 q -1.0625,0.9062 -2.0625,1.289 -1,0.3828 -2.1406,0.3828 -1.875,0 -2.8828,-0.9218 -1.0078,-0.9219 -1.0078,-2.3594 0,-0.8282 0.3828,-1.5235 0.3828,-0.6953 1,-1.1093 0.6172,-0.4141 1.3828,-0.6328 0.5781,-0.1563 1.7188,-0.2969 2.3437,-0.2813 3.4531,-0.6563 0.0156,-0.4062 0.0156,-0.5156 0,-1.1719 -0.5469,-1.6562 -0.75,-0.6563 -2.2031,-0.6563 -1.375,0 -2.0234,0.4766 -0.6485,0.4765 -0.961,1.6953 l -1.8906,-0.2656 q 0.2656,-1.2188 0.8516,-1.961 0.5859,-0.7422 1.7031,-1.1484 1.1172,-0.4063 2.6016,-0.4063 1.4531,0 2.3672,0.3438 0.914,0.3437 1.3437,0.8672 0.4297,0.5234 0.6016,1.3203 0.0937,0.5 0.0937,1.7812 v 2.5782 q 0,2.7031 0.125,3.414 0.125,0.711 0.4844,1.3672 H 85.7012 Q 85.4043,-0.6094 85.3105,-1.4062 Z M 85.1543,-5.7188 Q 84.1074,-5.2969 81.998,-5 q -1.1875,0.1719 -1.6875,0.3906 -0.5,0.2188 -0.7656,0.6328 -0.2656,0.4141 -0.2656,0.9141 0,0.7813 0.5859,1.2969 0.586,0.5156 1.711,0.5156 1.125,0 1.9922,-0.4922 0.8671,-0.4922 1.2734,-1.3359 0.3125,-0.6563 0.3125,-1.9375 z"
       id="path101" />
  </g>
  <g
     transform="translate(652,282)"
     style="font-size:22px;font-family:mwb_cmmi10;color-interpolation:linearRGB;color-rendering:optimizeQuality;image-rendering:optimizeQuality;text-rendering:geometricPrecision"
     id="g107">
    <path
       style="stroke:none"
       d="m 3.4219,-0.3281 q 0,-0.1563 0.0312,-0.2344 L 5.7656,-8.125 H 3.7812 q -0.8124,0 -1.5078,0.5078 Q 1.5781,-7.1094 1.125,-6.3438 1.0781,-6.25 0.9844,-6.25 h -0.25 q -0.2032,0 -0.2032,-0.2188 0,-0.0468 0.0313,-0.125 0.7344,-1.2343 1.5547,-2.0624 0.8203,-0.8282 1.8516,-0.8282 h 6.7343 q 0.25,0 0.4063,0.1641 0.1562,0.1641 0.1562,0.3984 0,0.3125 -0.2265,0.5547 -0.2266,0.2422 -0.5703,0.2422 H 6.4844 L 5.0156,-0.5312 Q 4.9375,-0.1719 4.6953,0.0625 4.4531,0.2969 4.0938,0.2969 3.8125,0.2969 3.6172,0.1172 3.4219,-0.0625 3.4219,-0.3281 Z"
       id="path105" />
  </g>
  <g
     transform="translate(662,293)"
     style="font-size:17.6px;color-interpolation:linearRGB;color-rendering:optimizeQuality;image-rendering:optimizeQuality;text-rendering:geometricPrecision"
     id="g111">
    <path
       style="stroke:none"
       d="M 0.125,0 3.5469,-4.8594 0.3906,-9.3281 h 1.9688 l 1.4375,2.1875 q 0.4062,0.625 0.6562,1.0468 0.375,-0.5937 0.7031,-1.0312 L 6.7344,-9.3281 H 8.625 L 5.3906,-4.9375 8.875,0 H 6.9219 L 5.0156,-2.9062 4.5,-3.6875 2.0469,0 Z M 9.9062,3.5938 9.7344,2.1094 Q 10.25,2.25 10.6406,2.25 11.1719,2.25 11.4844,2.0781 11.7969,1.9062 12,1.5781 12.1562,1.3438 12.4844,0.4062 12.5312,0.2656 12.625,0.0156 L 9.0938,-9.3281 h 1.7031 l 1.9375,5.4062 q 0.375,1.0157 0.6718,2.1563 0.2813,-1.0938 0.6563,-2.125 l 2,-5.4375 h 1.5781 l -3.5468,9.4843 q -0.5782,1.5469 -0.8907,2.125 -0.4219,0.7813 -0.9687,1.1407 -0.5469,0.3593 -1.2969,0.3593 -0.4687,0 -1.0313,-0.1874 z"
       id="path109" />
  </g>
  <g
     transform="translate(680,282)"
     style="font-size:22px;color-interpolation:linearRGB;color-rendering:optimizeQuality;image-rendering:optimizeQuality;text-rendering:geometricPrecision"
     id="g115">
    <path
       style="stroke:none"
       d="M 17.7373,-9.2656 H 7.3311 v -1.7969 h 10.4062 z m 0,4.7812 H 7.3311 v -1.7968 h 10.4062 z m 8.2412,0.3594 2.0313,-0.1719 q 0.2343,1.4844 1.0547,2.2266 0.8203,0.7422 1.9765,0.7422 1.4063,0 2.3672,-1.0469 0.9609,-1.0469 0.9609,-2.7969 0,-1.6562 -0.9296,-2.6093 -0.9297,-0.9532 -2.4297,-0.9532 -0.9375,0 -1.6875,0.4219 -0.75,0.4219 -1.1719,1.1094 l -1.8281,-0.2344 1.5312,-8.0937 h 7.8281 v 1.8437 h -6.2812 l -0.8438,4.2344 q 1.4219,-0.9844 2.9688,-0.9844 2.0625,0 3.4844,1.4297 1.4218,1.4297 1.4218,3.664 0,2.1407 -1.25,3.7032 -1.5156,1.9062 -4.1406,1.9062 -2.1406,0 -3.5,-1.2031 -1.3594,-1.2031 -1.5625,-3.1875 z M 45.0605,0 v -15.75 h 3.125 l 3.7344,11.1562 q 0.5156,1.5469 0.75,2.3282 0.2656,-0.8594 0.8438,-2.5313 L 57.2793,-15.75 h 2.7969 V 0 h -2 V -13.1875 L 53.498,0 H 51.623 L 47.0605,-13.4062 V 0 Z m 18.3887,0 v -15.75 h 5.9375 q 1.5625,0 2.3906,0.1562 1.1563,0.1876 1.9454,0.7344 0.789,0.5469 1.2656,1.5235 0.4765,0.9765 0.4765,2.1484 0,2 -1.2812,3.3906 -1.2813,1.3907 -4.6094,1.3907 H 65.5273 V 0 Z m 2.0781,-8.2656 h 4.0782 q 2.0156,0 2.8593,-0.75 0.8438,-0.75 0.8438,-2.1094 0,-1 -0.4922,-1.7031 -0.4922,-0.7031 -1.3203,-0.9219 -0.5156,-0.1406 -1.9375,-0.1406 h -4.0313 z m 19.7832,6.8594 q -1.0625,0.9062 -2.0625,1.289 -1,0.3828 -2.1406,0.3828 -1.875,0 -2.8828,-0.9218 -1.0078,-0.9219 -1.0078,-2.3594 0,-0.8282 0.3828,-1.5235 0.3828,-0.6953 1,-1.1093 0.6172,-0.4141 1.3828,-0.6328 0.5781,-0.1563 1.7188,-0.2969 2.3437,-0.2813 3.4531,-0.6563 0.0156,-0.4062 0.0156,-0.5156 0,-1.1719 -0.5469,-1.6562 -0.75,-0.6563 -2.2031,-0.6563 -1.375,0 -2.0234,0.4766 -0.6485,0.4765 -0.961,1.6953 l -1.8906,-0.2656 q 0.2656,-1.2188 0.8516,-1.961 0.5859,-0.7422 1.7031,-1.1484 1.1172,-0.4063 2.6016,-0.4063 1.4531,0 2.3672,0.3438 0.914,0.3437 1.3437,0.8672 0.4297,0.5234 0.6016,1.3203 0.0937,0.5 0.0937,1.7812 v 2.5782 q 0,2.7031 0.125,3.414 0.125,0.711 0.4844,1.3672 H 85.7012 Q 85.4043,-0.6094 85.3105,-1.4062 Z M 85.1543,-5.7188 Q 84.1074,-5.2969 81.998,-5 q -1.1875,0.1719 -1.6875,0.3906 -0.5,0.2188 -0.7656,0.6328 -0.2656,0.4141 -0.2656,0.9141 0,0.7813 0.5859,1.2969 0.586,0.5156 1.711,0.5156 1.125,0 1.9922,-0.4922 0.8671,-0.4922 1.2734,-1.3359 0.3125,-0.6563 0.3125,-1.9375 z"
       id="path113" />
  </g>
  <g
     transform="translate(652,348)"
     style="font-size:22px;font-family:mwb_cmmi10;color-interpolation:linearRGB;color-rendering:optimizeQuality;image-rendering:optimizeQuality;text-rendering:geometricPrecision"
     id="g119">
    <path
       style="stroke:none"
       d="m 4.1094,0.25 q -0.9688,0 -1.7266,-0.4688 -0.7578,-0.4687 -1.1719,-1.2656 -0.414,-0.7968 -0.414,-1.75 0,-1.0156 0.4609,-2.1484 0.461,-1.1328 1.2578,-2.0625 0.7969,-0.9297 1.8125,-1.4844 1.0157,-0.5547 2.0781,-0.5547 h 5.5469 q 0.2188,0 0.3828,0.1485 0.1641,0.1484 0.1641,0.414 0,0.3125 -0.2344,0.5547 -0.2344,0.2422 -0.5625,0.2422 H 9.0312 q 0.625,0.9531 0.625,2.2969 0,1.0937 -0.4296,2.1719 Q 8.7969,-2.5781 8.0312,-1.6953 7.2656,-0.8125 6.2578,-0.2812 5.25,0.25 4.1094,0.25 Z m 0.0312,-0.5781 q 1.2032,0 2.1328,-0.9453 0.9297,-0.9454 1.4219,-2.3047 0.4922,-1.3594 0.4922,-2.5157 0,-0.9374 -0.5234,-1.4843 -0.5235,-0.5469 -1.461,-0.5469 -1.2656,0 -2.164,0.8594 -0.8985,0.8594 -1.3438,2.164 -0.4453,1.3047 -0.4453,2.5078 0,0.9376 0.5,1.6016 0.5,0.6641 1.3906,0.6641 z"
       id="path117" />
  </g>
  <g
     transform="translate(665,359)"
     style="font-size:17.6px;color-interpolation:linearRGB;color-rendering:optimizeQuality;image-rendering:optimizeQuality;text-rendering:geometricPrecision"
     id="g123">
    <path
       style="stroke:none"
       d="M 1.1875,0 V -9.3281 H 2.6094 V -8 q 1.0312,-1.5469 2.9687,-1.5469 0.8438,0 1.5547,0.3047 0.711,0.3047 1.0625,0.7969 0.3516,0.4922 0.4922,1.1641 0.0781,0.4374 0.0781,1.5468 V 0 H 7.1875 v -5.6719 q 0,-0.9687 -0.1797,-1.4531 Q 6.8281,-7.6094 6.3516,-7.8906 5.875,-8.1719 5.25,-8.1719 q -1.0156,0 -1.75,0.6407 -0.7344,0.6406 -0.7344,2.4374 V 0 Z"
       id="path121" />
  </g>
  <g
     transform="translate(675,348)"
     style="font-size:22px;color-interpolation:linearRGB;color-rendering:optimizeQuality;image-rendering:optimizeQuality;text-rendering:geometricPrecision"
     id="g127">
    <path
       style="stroke:none"
       d="M 17.7373,-9.2656 H 7.3311 v -1.7969 h 10.4062 z m 0,4.7812 H 7.3311 v -1.7968 h 10.4062 z m 8.3818,-9.2031 v -1.8594 h 10.1875 v 1.5 q -1.5,1.6094 -2.9765,4.2578 -1.4766,2.6485 -2.2891,5.461 Q 30.4629,-2.3594 30.3066,0 h -1.9843 q 0.0312,-1.8594 0.7265,-4.4922 0.6953,-2.6328 2,-5.0781 1.3047,-2.4453 2.7735,-4.1172 z M 39.3076,0 v -2.2031 h 2.2031 V 0 Z m 5.0186,-4.125 2.0312,-0.1719 q 0.2344,1.4844 1.0547,2.2266 0.8203,0.7422 1.9766,0.7422 1.4062,0 2.3672,-1.0469 0.9609,-1.0469 0.9609,-2.7969 0,-1.6562 -0.9297,-2.6093 -0.9297,-0.9532 -2.4297,-0.9532 -0.9375,0 -1.6875,0.4219 -0.75,0.4219 -1.1719,1.1094 l -1.8281,-0.2344 1.5313,-8.0937 h 7.8281 v 1.8437 H 47.748 l -0.8437,4.2344 q 1.4219,-0.9844 2.9687,-0.9844 2.0625,0 3.4844,1.4297 1.4219,1.4297 1.4219,3.664 0,2.1407 -1.25,3.7032 -1.5156,1.9062 -4.1406,1.9062 -2.1407,0 -3.5,-1.2031 -1.3594,-1.2031 -1.5625,-3.1875 z M 63.4082,0 v -15.75 h 3.125 l 3.7344,11.1562 q 0.5156,1.5469 0.75,2.3282 0.2656,-0.8594 0.8437,-2.5313 L 75.627,-15.75 h 2.7968 V 0 h -2 V -13.1875 L 71.8457,0 h -1.875 L 65.4082,-13.4062 V 0 Z m 18.3887,0 v -15.75 h 5.9375 q 1.5625,0 2.3906,0.1562 1.1562,0.1876 1.9453,0.7344 0.7891,0.5469 1.2656,1.5235 0.4766,0.9765 0.4766,2.1484 0,2 -1.2813,3.3906 -1.2812,1.3907 -4.6093,1.3907 H 83.875 V 0 Z m 2.0781,-8.2656 h 4.0781 q 2.0157,0 2.8594,-0.75 0.8437,-0.75 0.8437,-2.1094 0,-1 -0.4921,-1.7031 -0.4922,-0.7031 -1.3203,-0.9219 -0.5157,-0.1406 -1.9376,-0.1406 H 83.875 Z m 19.7832,6.8594 q -1.0625,0.9062 -2.0625,1.289 -1,0.3828 -2.1406,0.3828 -1.875,0 -2.8828,-0.9218 -1.0078,-0.9219 -1.0078,-2.3594 0,-0.8282 0.3828,-1.5235 0.3828,-0.6953 1,-1.1093 0.6172,-0.4141 1.3828,-0.6328 0.5781,-0.1563 1.7187,-0.2969 2.3438,-0.2813 3.4532,-0.6563 0.0156,-0.4062 0.0156,-0.5156 0,-1.1719 -0.5469,-1.6562 -0.75,-0.6563 -2.2031,-0.6563 -1.375,0 -2.0235,0.4766 -0.6484,0.4765 -0.9609,1.6953 l -1.8906,-0.2656 q 0.2656,-1.2188 0.8515,-1.961 0.586,-0.7422 1.7032,-1.1484 1.1172,-0.4063 2.6015,-0.4063 1.4532,0 2.3672,0.3438 0.9141,0.3437 1.3438,0.8672 0.4297,0.5234 0.6015,1.3203 0.0938,0.5 0.0938,1.7812 v 2.5782 q 0,2.7031 0.125,3.414 0.125,0.711 0.4844,1.3672 h -2.0157 q -0.2968,-0.6094 -0.3906,-1.4062 z m -0.1562,-4.3126 q -1.0469,0.4219 -3.1563,0.7188 -1.1875,0.1719 -1.6875,0.3906 -0.5,0.2188 -0.7656,0.6328 -0.2656,0.4141 -0.2656,0.9141 0,0.7813 0.5859,1.2969 0.5859,0.5156 1.7109,0.5156 1.125,0 1.9922,-0.4922 0.8672,-0.4922 1.2735,-1.3359 0.3125,-0.6563 0.3125,-1.9375 z"
       id="path125" />
  </g>
  <g
     transform="translate(652,386)"
     style="font-size:22px;font-family:mwb_cmmi10;color-interpolation:linearRGB;color-rendering:optimizeQuality;image-rendering:optimizeQuality;text-rendering:geometricPrecision"
     id="g131">
    <path
       style="stroke:none"
       d="m 3.4219,-0.3281 q 0,-0.1563 0.0312,-0.2344 L 5.7656,-8.125 H 3.7812 q -0.8124,0 -1.5078,0.5078 Q 1.5781,-7.1094 1.125,-6.3438 1.0781,-6.25 0.9844,-6.25 h -0.25 q -0.2032,0 -0.2032,-0.2188 0,-0.0468 0.0313,-0.125 0.7344,-1.2343 1.5547,-2.0624 0.8203,-0.8282 1.8516,-0.8282 h 6.7343 q 0.25,0 0.4063,0.1641 0.1562,0.1641 0.1562,0.3984 0,0.3125 -0.2265,0.5547 -0.2266,0.2422 -0.5703,0.2422 H 6.4844 L 5.0156,-0.5312 Q 4.9375,-0.1719 4.6953,0.0625 4.4531,0.2969 4.0938,0.2969 3.8125,0.2969 3.6172,0.1172 3.4219,-0.0625 3.4219,-0.3281 Z"
       id="path129" />
  </g>
  <g
     transform="translate(662,397)"
     style="font-size:17.6px;color-interpolation:linearRGB;color-rendering:optimizeQuality;image-rendering:optimizeQuality;text-rendering:geometricPrecision"
     id="g135">
    <path
       style="stroke:none"
       d="M 1.1875,0 V -9.3281 H 2.6094 V -8 q 1.0312,-1.5469 2.9687,-1.5469 0.8438,0 1.5547,0.3047 0.711,0.3047 1.0625,0.7969 0.3516,0.4922 0.4922,1.1641 0.0781,0.4374 0.0781,1.5468 V 0 H 7.1875 v -5.6719 q 0,-0.9687 -0.1797,-1.4531 Q 6.8281,-7.6094 6.3516,-7.8906 5.875,-8.1719 5.25,-8.1719 q -1.0156,0 -1.75,0.6407 -0.7344,0.6406 -0.7344,2.4374 V 0 Z"
       id="path133" />
  </g>
  <g
     transform="translate(672,386)"
     style="font-size:22px;color-interpolation:linearRGB;color-rendering:optimizeQuality;image-rendering:optimizeQuality;text-rendering:geometricPrecision"
     id="g139">
    <path
       style="stroke:none"
       d="M 17.7373,-9.2656 H 7.3311 v -1.7969 h 10.4062 z m 0,4.7812 H 7.3311 v -1.7968 h 10.4062 z m 8.0381,-0.25 v -1.9375 h 5.9375 v 1.9375 z M 39.5078,0 V -3.7656 H 32.6797 V -5.5469 L 39.8672,-15.75 h 1.5781 v 10.2031 h 2.125 v 1.7813 h -2.125 V 0 Z m 0,-5.5469 v -7.0937 l -4.9219,7.0937 z M 46.6338,0 v -2.2031 h 2.2031 V 0 Z m 5.0342,-4.1562 1.9375,-0.2657 q 0.3281,1.6563 1.1328,2.375 0.8047,0.7188 1.9453,0.7188 1.375,0 2.3125,-0.9453 0.9375,-0.9454 0.9375,-2.336 0,-1.3281 -0.875,-2.1953 -0.875,-0.8672 -2.2031,-0.8672 -0.5625,0 -1.375,0.2188 l 0.2187,-1.7031 q 0.1875,0.0312 0.3125,0.0312 1.2344,0 2.2188,-0.6484 0.9843,-0.6485 0.9843,-1.9922 0,-1.0625 -0.7187,-1.7578 -0.7188,-0.6954 -1.8594,-0.6954 -1.125,0 -1.875,0.7032 -0.75,0.7031 -0.9687,2.125 l -1.9219,-0.3438 q 0.3437,-1.9375 1.6016,-3.0078 1.2578,-1.0703 3.1328,-1.0703 1.2812,0 2.3672,0.5547 1.0859,0.5547 1.664,1.5078 0.5781,0.9531 0.5781,2.0312 0,1.0157 -0.5468,1.8516 -0.5469,0.836 -1.625,1.336 1.3906,0.3281 2.164,1.3437 0.7735,1.0156 0.7735,2.5313 0,2.0624 -1.5,3.5 -1.5,1.4374 -3.7969,1.4374 -2.0781,0 -3.4453,-1.2343 -1.3672,-1.2344 -1.5703,-3.2031 z m 12.2353,0 1.9375,-0.2657 q 0.3281,1.6563 1.1328,2.375 0.8047,0.7188 1.9453,0.7188 1.375,0 2.3125,-0.9453 0.9375,-0.9454 0.9375,-2.336 0,-1.3281 -0.875,-2.1953 -0.875,-0.8672 -2.2031,-0.8672 -0.5625,0 -1.375,0.2188 l 0.2188,-1.7031 q 0.1875,0.0312 0.3125,0.0312 1.2343,0 2.2187,-0.6484 0.9844,-0.6485 0.9844,-1.9922 0,-1.0625 -0.7188,-1.7578 -0.7187,-0.6954 -1.8593,-0.6954 -1.125,0 -1.875,0.7032 -0.75,0.7031 -0.9688,2.125 l -1.9219,-0.3438 q 0.3438,-1.9375 1.6016,-3.0078 1.2578,-1.0703 3.1328,-1.0703 1.2813,0 2.3672,0.5547 1.0859,0.5547 1.6641,1.5078 0.5781,0.9531 0.5781,2.0312 0,1.0157 -0.5469,1.8516 -0.5469,0.836 -1.625,1.336 1.3906,0.3281 2.1641,1.3437 0.7734,1.0156 0.7734,2.5313 0,2.0624 -1.5,3.5 -1.5,1.4374 -3.7969,1.4374 -2.0781,0 -3.4453,-1.2343 -1.3672,-1.2344 -1.5703,-3.2031 z M 82.9697,0 v -15.75 h 3.125 l 3.7344,11.1562 q 0.5156,1.5469 0.75,2.3282 0.2656,-0.8594 0.8438,-2.5313 L 95.1885,-15.75 h 2.7969 V 0 h -2 V -13.1875 L 91.4072,0 h -1.875 L 84.9697,-13.4062 V 0 Z m 18.3887,0 v -15.75 h 5.9375 q 1.5625,0 2.3906,0.1562 1.1563,0.1876 1.9453,0.7344 0.7891,0.5469 1.2657,1.5235 0.4765,0.9765 0.4765,2.1484 0,2 -1.2812,3.3906 -1.2813,1.3907 -4.6094,1.3907 h -4.0469 V 0 Z m 2.0781,-8.2656 h 4.0781 q 2.0157,0 2.8594,-0.75 0.8438,-0.75 0.8438,-2.1094 0,-1 -0.4922,-1.7031 -0.4922,-0.7031 -1.3203,-0.9219 -0.5157,-0.1406 -1.9375,-0.1406 h -4.0313 z m 19.7832,6.8594 q -1.0625,0.9062 -2.0625,1.289 -1,0.3828 -2.1406,0.3828 -1.875,0 -2.8828,-0.9218 -1.0078,-0.9219 -1.0078,-2.3594 0,-0.8282 0.3828,-1.5235 0.3828,-0.6953 1,-1.1093 0.6172,-0.4141 1.3828,-0.6328 0.5781,-0.1563 1.7188,-0.2969 2.3437,-0.2813 3.4531,-0.6563 0.0156,-0.4062 0.0156,-0.5156 0,-1.1719 -0.5469,-1.6562 -0.75,-0.6563 -2.2031,-0.6563 -1.375,0 -2.0234,0.4766 -0.6485,0.4765 -0.961,1.6953 l -1.8906,-0.2656 q 0.2656,-1.2188 0.8516,-1.961 0.5859,-0.7422 1.7031,-1.1484 1.1172,-0.4063 2.6016,-0.4063 1.4531,0 2.3671,0.3438 0.9141,0.3437 1.3438,0.8672 0.4297,0.5234 0.6016,1.3203 0.0937,0.5 0.0937,1.7812 v 2.5782 q 0,2.7031 0.125,3.414 0.125,0.711 0.4844,1.3672 h -2.0156 q -0.2969,-0.6094 -0.3907,-1.4062 z m -0.1562,-4.3126 q -1.0469,0.4219 -3.1563,0.7188 -1.1875,0.1719 -1.6875,0.3906 -0.5,0.2188 -0.7656,0.6328 -0.2656,0.4141 -0.2656,0.9141 0,0.7813 0.5859,1.2969 0.586,0.5156 1.711,0.5156 1.125,0 1.9921,-0.4922 0.8672,-0.4922 1.2735,-1.3359 0.3125,-0.6563 0.3125,-1.9375 z"
       id="path137" />
  </g>
</svg>
