<?xml version="1.0" encoding="UTF-8" standalone="no"?>
<svg
   style="fill-opacity:1; color-rendering:auto; color-interpolation:auto; text-rendering:auto; stroke:black; stroke-linecap:square; stroke-miterlimit:10; shape-rendering:auto; stroke-opacity:1; fill:black; stroke-dasharray:none; font-weight:normal; stroke-width:1; font-family:'Dialog'; font-style:normal; stroke-linejoin:miter; font-size:12px; stroke-dashoffset:0; image-rendering:auto;"
   width="897"
   height="901"
   version="1.1"
   id="svg427"
   sodipodi:docname="BeamDeflection.svg"
   inkscape:version="1.1.1 (3bf5ae0d25, 2021-09-20)"
   inkscape:export-filename="D:\MW\OneDrive - MathWorks\Projects\2022-04-MechanicsOfMaterials\Content\SupportingFiles\BeamDeflection\BeamDeflection.png"
   inkscape:export-xdpi="165.81422"
   inkscape:export-ydpi="165.81422"
   xmlns:inkscape="http://www.inkscape.org/namespaces/inkscape"
   xmlns:sodipodi="http://sodipodi.sourceforge.net/DTD/sodipodi-0.dtd"
   xmlns="http://www.w3.org/2000/svg"
   xmlns:svg="http://www.w3.org/2000/svg">
  <sodipodi:namedview
     id="namedview429"
     pagecolor="#ffffff"
     bordercolor="#666666"
     borderopacity="1.0"
     inkscape:pageshadow="2"
     inkscape:pageopacity="0.0"
     inkscape:pagecheckerboard="0"
     showgrid="false"
     inkscape:zoom="3.1920088"
     inkscape:cx="313.28234"
     inkscape:cy="92.105009"
     inkscape:window-width="3840"
     inkscape:window-height="2054"
     inkscape:window-x="-11"
     inkscape:window-y="-11"
     inkscape:window-maximized="1"
     inkscape:current-layer="svg427" />
  <g
     style="color-interpolation:sRGB;fill:#8d8d8d;fill-opacity:0.32604736;stroke:#b3b3b3;stroke-opacity:0.2;color-rendering:optimizeSpeed;image-rendering:optimizeSpeed;shape-rendering:crispEdges;text-rendering:optimizeSpeed"
     id="g23"
     transform="matrix(0.70146134,0,0,1,20.252743,0)">
    <path
       style="stroke:none;fill:#8d8d8d;fill-opacity:0.32604736"
       d="M 67.8396,108.0723 H 829.1604 V 81.4261 H 67.8396 Z"
       id="path21" />
  </g>
  <!--Generated by the Batik Graphics2D SVG Generator-->
  <g
     style="color-interpolation:linearRGB;fill:#000000;fill-opacity:0.2;stroke:#000000;stroke-opacity:0.3934426;color-rendering:optimizeQuality;image-rendering:optimizeQuality;text-rendering:geometricPrecision"
     id="g27"
     transform="matrix(0.70109665,0,0,1.0040886,20.19056,-0.41569044)">
    <path
       d="M 67.8396,108.0723 H 829.1604 V 81.4261 H 67.8396 v 26.6462"
       style="fill:none;fill-rule:evenodd;stroke:#000000;stroke-opacity:0.3934426"
       id="path25" />
  </g>
  <defs
     id="genericDefs">
    <rect
       x="350.45107"
       y="9.7470589"
       width="165.7"
       height="31.899465"
       id="rect4462" />
    <marker
       style="overflow:visible;"
       id="Arrow2Mend"
       refX="0.0"
       refY="0.0"
       orient="auto"
       inkscape:stockid="Arrow2Mend"
       inkscape:isstock="true">
      <path
         transform="scale(0.6) rotate(180) translate(0,0)"
         d="M 8.7185878,4.0337352 L -2.2072895,0.016013256 L 8.7185884,-4.0017078 C 6.9730900,-1.6296469 6.9831476,1.6157441 8.7185878,4.0337352 z "
         style="stroke:context-stroke;fill-rule:evenodd;fill:context-stroke;stroke-width:0.62500000;stroke-linejoin:round;"
         id="path2239" />
    </marker>
    <rect
       x="350.45108"
       y="9.7470589"
       width="165.7"
       height="31.899466"
       id="rect4462-1" />
    <defs
       id="defs1">
      <clipPath
         clipPathUnits="userSpaceOnUse"
         id="clipPath1">
        <path
           d="M0 0 L897 0 L897 901 L0 901 L0 0 Z"
           id="path3" />
      </clipPath>
    </defs>
  </defs>
  <g
     style="color-interpolation:linearRGB;fill:#0071aa;fill-opacity:0.77413481;color-rendering:optimizeQuality;image-rendering:optimizeQuality;text-rendering:geometricPrecision"
     id="g19"
     transform="matrix(0.70109665,0,0,1.0040886,20.19056,-0.41569044)">
    <path
       d="m 67.8396,81.4261 7.6901,0.4483 7.6901,0.4478 7.6902,0.4467 7.6901,0.4451 7.6901,0.4429 7.6901,0.4404 7.6901,0.4373 7.6901,0.4337 7.6901,0.4297 7.6901,0.4252 7.6901,0.4203 7.6901,0.4149 7.6901,0.4091 7.6901,0.4029 7.6902,0.3963 7.6901,0.3893 7.6901,0.382 7.6901,0.3742 7.6901,0.3661 7.6901,0.3578 7.6901,0.3489 7.6901,0.3399 7.6901,0.3305 7.6901,0.3208 7.6901,0.3108 7.6901,0.3005 7.6902,0.29 7.6901,0.2793 7.6901,0.2682 7.6901,0.257 7.6901,0.2454 7.6901,0.2338 7.6901,0.2219 7.6901,0.2099 7.6901,0.1975 7.6901,0.1852 7.6902,0.1726 7.6901,0.1598 7.6901,0.147 7.69,0.134 7.6902,0.121 7.6901,0.1077 7.6901,0.0945 7.6901,0.0811 7.6901,0.0678 7.6901,0.0542 7.6901,0.0407 7.6901,0.0272 7.6901,0.0135 h 7.6902 l 7.6901,-0.0135 7.6901,-0.0272 7.6901,-0.0407 7.6901,-0.0542 7.6901,-0.0678 7.6901,-0.0811 7.6901,-0.0945 7.6901,-0.1077 7.6901,-0.121 7.6902,-0.134 7.6901,-0.147 7.69,-0.1598 7.6902,-0.1726 7.6901,-0.1852 7.6901,-0.1975 7.6901,-0.2099 7.6901,-0.2219 7.6901,-0.2338 7.6901,-0.2454 7.6901,-0.257 7.6901,-0.2682 7.6902,-0.2793 7.69,-0.29 7.6902,-0.3005 7.6901,-0.3108 7.6901,-0.3208 7.6901,-0.3305 7.6901,-0.3399 7.6901,-0.3489 7.6901,-0.3578 7.6901,-0.3661 7.6901,-0.3742 7.6902,-0.382 7.69,-0.3893 7.6901,-0.3963 7.6902,-0.4029 7.6901,-0.4091 7.6901,-0.4149 7.6901,-0.4203 7.6901,-0.4252 7.6901,-0.4297 7.6902,-0.4337 7.69,-0.4373 7.6901,-0.4404 7.6902,-0.4429 7.6901,-0.4451 7.6901,-0.4467 7.6901,-0.4478 7.6901,-0.4483 v 26.6462 l -7.6901,0.4483 -7.6901,0.4478 -7.6901,0.4467 -7.6901,0.4451 -7.6902,0.443 -7.6901,0.4404 -7.69,0.4373 -7.6902,0.4337 -7.6901,0.4297 -7.6901,0.4252 -7.6901,0.4202 -7.6901,0.4149 -7.6901,0.4091 -7.6902,0.4029 -7.6901,0.3963 -7.69,0.3894 -7.6902,0.3819 -7.6901,0.3742 -7.6901,0.3662 -7.6901,0.3577 -7.6901,0.3489 -7.6901,0.3399 -7.6901,0.3305 -7.6901,0.3208 -7.6901,0.3108 -7.6902,0.3005 -7.69,0.2901 -7.6902,0.2792 -7.6901,0.2682 -7.6901,0.257 -7.6901,0.2455 -7.6901,0.2338 -7.6901,0.2219 -7.6901,0.2098 -7.6901,0.1976 -7.6901,0.1851 -7.6902,0.1726 -7.69,0.1599 -7.6901,0.147 -7.6902,0.134 -7.6901,0.1209 -7.6901,0.1078 -7.6901,0.0944 -7.6901,0.0812 -7.6901,0.0677 -7.6901,0.0542 -7.6901,0.0407 -7.6901,0.0272 -7.6901,0.0136 h -7.6902 l -7.6901,-0.0136 -7.6901,-0.0272 -7.6901,-0.0407 -7.6901,-0.0542 -7.6901,-0.0677 -7.6901,-0.0812 -7.6901,-0.0944 -7.6901,-0.1078 -7.6902,-0.1209 -7.69,-0.134 -7.6901,-0.147 -7.6901,-0.1599 -7.6902,-0.1726 -7.6901,-0.1851 -7.6901,-0.1976 -7.6901,-0.2098 -7.6901,-0.2219 -7.6901,-0.2338 -7.6901,-0.2455 -7.6901,-0.257 -7.6901,-0.2682 -7.6901,-0.2792 -7.6902,-0.2901 -7.6901,-0.3005 -7.6901,-0.3108 -7.6901,-0.3208 -7.6901,-0.3305 -7.6901,-0.3399 -7.6901,-0.3489 -7.6901,-0.3577 -7.6901,-0.3662 -7.6901,-0.3742 -7.6901,-0.3819 -7.6901,-0.3894 -7.6902,-0.3963 -7.6901,-0.4029 -7.6901,-0.4091 -7.6901,-0.4149 -7.6901,-0.4202 -7.6901,-0.4252 -7.6901,-0.4297 -7.6901,-0.4337 -7.6901,-0.4373 -7.6901,-0.4404 -7.6901,-0.443 -7.6901,-0.4451 -7.6902,-0.4467 -7.6901,-0.4478 -7.6901,-0.4483 V 81.4261"
       style="fill:#0071aa;fill-opacity:0.77413481;fill-rule:evenodd"
       id="path17" />
  </g>
  <g
     style="color-interpolation:sRGB;fill:#cccccc;stroke:#cccccc;color-rendering:optimizeSpeed;image-rendering:optimizeSpeed;shape-rendering:crispEdges;text-rendering:optimizeSpeed"
     id="g31">
    <path
       style="stroke:none"
       d="m 74.5208,96.8091 -0.1658,-0.2884 -0.1783,-0.2809 -0.1904,-0.2729 -0.2022,-0.2642 -0.2135,-0.2552 -0.2244,-0.2456 -0.2349,-0.2356 -0.2451,-0.2251 -0.2546,-0.2141 -0.2637,-0.2029 -0.2724,-0.1911 -0.2804,-0.179 -0.288,-0.1666 -0.295,-0.1539 -0.3015,-0.1408 -0.3073,-0.1276 -0.3126,-0.1139 -0.3172,-0.1003 -0.3214,-0.0862 -0.3248,-0.0721 -0.3276,-0.0579 -0.3299,-0.0435 -0.3314,-0.029 -0.3324,-0.0146 h -0.3327 l -0.3324,0.0146 -0.3315,0.029 -0.3298,0.0435 -0.3277,0.0579 -0.3248,0.0721 -0.3213,0.0862 -0.3173,0.1003 -0.3126,0.1139 -0.3073,0.1276 -0.3014,0.1408 -0.295,0.1539 -0.288,0.1666 -0.2805,0.179 -0.2723,0.1911 -0.2638,0.2029 -0.2546,0.2141 -0.245,0.2251 -0.235,0.2356 -0.2244,0.2456 -0.2135,0.2552 -0.2021,0.2642 -0.1904,0.2729 -0.1783,0.2809 -0.1659,0.2884 -2.8353,26.4896 h 19.033 z"
       id="path29" />
  </g>
  <g
     style="color-interpolation:linearRGB;color-rendering:optimizeQuality;image-rendering:optimizeQuality;text-rendering:geometricPrecision"
     id="g37">
    <path
       d="m 58.3231,123.2987 2.8353,-26.4896 0.1659,-0.2884 0.1783,-0.2809 0.1904,-0.2729 0.2021,-0.2642 0.2135,-0.2552 0.2244,-0.2456 0.235,-0.2356 0.245,-0.2251 0.2546,-0.2141 0.2638,-0.2029 0.2723,-0.1911 0.2805,-0.179 0.288,-0.1666 0.295,-0.1539 0.3014,-0.1408 0.3073,-0.1276 0.3126,-0.1139 0.3173,-0.1003 0.3213,-0.0862 0.3248,-0.0721 0.3277,-0.0579 0.3298,-0.0435 0.3315,-0.029 0.3324,-0.0146 h 0.3327 l 0.3324,0.0146 0.3314,0.029 0.3299,0.0435 0.3276,0.0579 0.3248,0.0721 0.3214,0.0862 0.3172,0.1003 0.3126,0.1139 0.3073,0.1276 0.3015,0.1408 0.295,0.1539 0.288,0.1666 0.2804,0.179 0.2724,0.1911 0.2637,0.2029 0.2546,0.2141 0.2451,0.2251 0.2349,0.2356 0.2244,0.2456 0.2135,0.2552 0.2022,0.2642 0.1904,0.2729 0.1783,0.2809 0.1658,0.2884 2.8353,26.4896 h -19.033"
       style="fill:none;fill-rule:evenodd"
       id="path33" />
    <circle
       r="3.3333001"
       style="stroke:none"
       cx="0"
       transform="translate(67.8396,100.4591)"
       cy="0"
       id="circle35" />
  </g>
  <g
     style="color-interpolation:sRGB;fill:#cccccc;stroke:#cccccc;color-rendering:optimizeSpeed;image-rendering:optimizeSpeed;shape-rendering:crispEdges;text-rendering:optimizeSpeed"
     id="g41"
     transform="translate(-228)">
    <path
       style="stroke:none"
       d="m 823.3633,120.6206 0.6787,0.7008 0.7627,0.6083 0.8343,0.5057 0.8921,0.3949 0.9352,0.2775 0.963,0.1557 0.9751,0.0313 0.971,-0.0937 0.9511,-0.217 0.9156,-0.337 0.8649,-0.4512 0.8002,-0.5581 0.7221,-0.6559 0.6324,-0.7428 0.5322,-0.8177 0.4233,-0.8789 0.3074,-0.9259 0.1865,-0.9575 0.0625,-0.9736 -0.0625,-0.9735 -0.1865,-0.9576 -0.3074,-0.9259 -0.4233,-0.8789 -0.5322,-0.8176 -0.6324,-0.7429 -0.7221,-0.6558 -0.8002,-0.5582 -0.8649,-0.4512 -0.9156,-0.3369 -0.9511,-0.2171 -0.971,-0.0937 -0.9751,0.0313 -0.963,0.1557 -0.9352,0.2776 -0.8921,0.3949 -0.8343,0.5057 -0.7627,0.6082 -0.6787,0.7008 -0.5835,0.7818 -0.4787,0.8501 -0.3661,0.9042 -0.2474,0.9437 -0.1248,0.9675 v 0.9756 l 0.1248,0.9675 0.2474,0.9437 0.3661,0.9043 0.4787,0.85 z"
       id="path39" />
  </g>
  <g
     style="color-interpolation:linearRGB;color-rendering:optimizeQuality;image-rendering:optimizeQuality;text-rendering:geometricPrecision"
     id="g45"
     transform="translate(-228)">
    <path
       d="m 836.7736,115.6855 -0.0625,-0.9735 -0.1865,-0.9576 -0.3074,-0.9259 -0.4233,-0.8789 -0.5322,-0.8176 -0.6324,-0.7429 -0.7221,-0.6558 -0.8002,-0.5582 -0.8649,-0.4512 -0.9156,-0.3369 -0.9511,-0.2171 -0.971,-0.0937 -0.9751,0.0313 -0.963,0.1557 -0.9352,0.2776 -0.8921,0.3949 -0.8343,0.5057 -0.7627,0.6082 -0.6787,0.7008 -0.5835,0.7818 -0.4787,0.8501 -0.3661,0.9042 -0.2474,0.9437 -0.1248,0.9675 v 0.9756 l 0.1248,0.9675 0.2474,0.9437 0.3661,0.9043 0.4787,0.85 0.5835,0.7818 0.6787,0.7008 0.7627,0.6083 0.8343,0.5057 0.8921,0.3949 0.9352,0.2775 0.963,0.1557 0.9751,0.0313 0.971,-0.0937 0.9511,-0.217 0.9156,-0.337 0.8649,-0.4512 0.8002,-0.5581 0.7221,-0.6559 0.6324,-0.7428 0.5322,-0.8177 0.4233,-0.8789 0.3074,-0.9259 0.1865,-0.9575 0.0625,-0.9736 v 0"
       style="fill:none;fill-rule:evenodd"
       id="path43" />
  </g>
  <line
     y2="79.426102"
     style="color-interpolation:linearRGB;fill:none;stroke:#d78825;stroke-width:1;stroke-linecap:butt;stroke-linejoin:round;stroke-miterlimit:10;stroke-dasharray:none;marker-end:url(#Arrow2Mend);color-rendering:optimizeQuality;image-rendering:optimizeQuality;text-rendering:geometricPrecision"
     x1="67.8396"
     x2="67.8396"
     y1="50.635387"
     id="line127" />
  <line
     y2="79.426102"
     style="color-interpolation:linearRGB;fill:none;stroke:#d78825;stroke-width:1;stroke-linecap:butt;stroke-linejoin:round;stroke-miterlimit:10;stroke-dasharray:none;marker-end:url(#Arrow2Mend);color-rendering:optimizeQuality;image-rendering:optimizeQuality;text-rendering:geometricPrecision"
     x1="99.211411"
     x2="99.211411"
     y1="50.635387"
     id="line129" />
  <line
     y2="79.426102"
     style="color-interpolation:linearRGB;fill:none;stroke:#d78825;stroke-width:1;stroke-linecap:butt;stroke-linejoin:round;stroke-miterlimit:10;stroke-dasharray:none;marker-end:url(#Arrow2Mend);color-rendering:optimizeQuality;image-rendering:optimizeQuality;text-rendering:geometricPrecision"
     x1="130.58322"
     x2="130.58322"
     y1="50.635387"
     id="line131" />
  <line
     y2="79.426102"
     style="color-interpolation:linearRGB;fill:none;stroke:#d78825;stroke-width:1;stroke-linecap:butt;stroke-linejoin:round;stroke-miterlimit:10;stroke-dasharray:none;marker-end:url(#Arrow2Mend);color-rendering:optimizeQuality;image-rendering:optimizeQuality;text-rendering:geometricPrecision"
     x1="161.95502"
     x2="161.95502"
     y1="50.635387"
     id="line133" />
  <line
     y2="79.426102"
     style="color-interpolation:linearRGB;fill:none;stroke:#d78825;stroke-width:1;stroke-linecap:butt;stroke-linejoin:round;stroke-miterlimit:10;stroke-dasharray:none;marker-end:url(#Arrow2Mend);color-rendering:optimizeQuality;image-rendering:optimizeQuality;text-rendering:geometricPrecision"
     x1="193.32684"
     x2="193.32684"
     y1="50.635387"
     id="line135" />
  <line
     y2="79.426102"
     style="color-interpolation:linearRGB;fill:none;stroke:#d78825;stroke-width:1;stroke-linecap:butt;stroke-linejoin:round;stroke-miterlimit:10;stroke-dasharray:none;marker-end:url(#Arrow2Mend);color-rendering:optimizeQuality;image-rendering:optimizeQuality;text-rendering:geometricPrecision"
     x1="224.69864"
     x2="224.69864"
     y1="50.635387"
     id="line137" />
  <line
     y2="79.426102"
     style="color-interpolation:linearRGB;fill:none;stroke:#d78825;stroke-width:1;stroke-linecap:butt;stroke-linejoin:round;stroke-miterlimit:10;stroke-dasharray:none;marker-end:url(#Arrow2Mend);color-rendering:optimizeQuality;image-rendering:optimizeQuality;text-rendering:geometricPrecision"
     x1="256.07047"
     x2="256.07047"
     y1="50.635387"
     id="line139" />
  <line
     y2="79.426102"
     style="color-interpolation:linearRGB;fill:none;stroke:#d78825;stroke-width:1;stroke-linecap:butt;stroke-linejoin:round;stroke-miterlimit:10;stroke-dasharray:none;marker-end:url(#Arrow2Mend);color-rendering:optimizeQuality;image-rendering:optimizeQuality;text-rendering:geometricPrecision"
     x1="287.44226"
     x2="287.44226"
     y1="50.635387"
     id="line141" />
  <line
     y2="79.426102"
     style="color-interpolation:linearRGB;fill:none;stroke:#d78825;stroke-width:1;stroke-linecap:butt;stroke-linejoin:round;stroke-miterlimit:10;stroke-dasharray:none;marker-end:url(#Arrow2Mend);color-rendering:optimizeQuality;image-rendering:optimizeQuality;text-rendering:geometricPrecision"
     x1="318.81409"
     x2="318.81409"
     y1="50.635387"
     id="line143" />
  <line
     y2="79.426102"
     style="color-interpolation:linearRGB;fill:none;stroke:#d78825;stroke-width:1;stroke-linecap:butt;stroke-linejoin:round;stroke-miterlimit:10;stroke-dasharray:none;marker-end:url(#Arrow2Mend);color-rendering:optimizeQuality;image-rendering:optimizeQuality;text-rendering:geometricPrecision"
     x1="350.18591"
     x2="350.18591"
     y1="50.635387"
     id="line145" />
  <line
     y2="79.426102"
     style="color-interpolation:linearRGB;fill:none;stroke:#d78825;stroke-width:1;stroke-linecap:butt;stroke-linejoin:round;stroke-miterlimit:10;stroke-dasharray:none;marker-end:url(#Arrow2Mend);color-rendering:optimizeQuality;image-rendering:optimizeQuality;text-rendering:geometricPrecision"
     x1="381.55771"
     x2="381.55771"
     y1="50.635387"
     id="line159" />
  <line
     y2="79.426102"
     style="color-interpolation:linearRGB;fill:none;stroke:#d78825;stroke-width:1;stroke-linecap:butt;stroke-linejoin:round;stroke-miterlimit:10;stroke-dasharray:none;marker-end:url(#Arrow2Mend);color-rendering:optimizeQuality;image-rendering:optimizeQuality;text-rendering:geometricPrecision"
     x1="412.9295"
     x2="412.9295"
     y1="50.635387"
     id="line161" />
  <line
     y2="79.426102"
     style="color-interpolation:linearRGB;fill:none;stroke:#d78825;stroke-width:1;stroke-linecap:butt;stroke-linejoin:round;stroke-miterlimit:10;stroke-dasharray:none;marker-end:url(#Arrow2Mend);color-rendering:optimizeQuality;image-rendering:optimizeQuality;text-rendering:geometricPrecision"
     x1="444.30133"
     x2="444.30133"
     y1="50.635387"
     id="line183" />
  <line
     y2="79.426102"
     style="color-interpolation:linearRGB;fill:none;stroke:#d78825;stroke-width:1;stroke-linecap:butt;stroke-linejoin:round;stroke-miterlimit:10;stroke-dasharray:none;marker-end:url(#Arrow2Mend);color-rendering:optimizeQuality;image-rendering:optimizeQuality;text-rendering:geometricPrecision"
     x1="475.67316"
     x2="475.67316"
     y1="50.635387"
     id="line197" />
  <line
     y2="79.426102"
     style="color-interpolation:linearRGB;fill:none;stroke:#d78825;stroke-width:1;stroke-linecap:butt;stroke-linejoin:round;stroke-miterlimit:10;stroke-dasharray:none;marker-end:url(#Arrow2Mend);color-rendering:optimizeQuality;image-rendering:optimizeQuality;text-rendering:geometricPrecision"
     x1="507.04498"
     x2="507.04498"
     y1="50.635387"
     id="line199" />
  <line
     y2="79.426102"
     style="color-interpolation:linearRGB;fill:none;stroke:#d78825;stroke-width:1;stroke-linecap:butt;stroke-linejoin:round;stroke-miterlimit:10;stroke-dasharray:none;marker-end:url(#Arrow2Mend);color-rendering:optimizeQuality;image-rendering:optimizeQuality;text-rendering:geometricPrecision"
     x1="538.41675"
     x2="538.41675"
     y1="50.635387"
     id="line201" />
  <line
     y2="79.426102"
     style="color-interpolation:linearRGB;fill:none;stroke:#d78825;stroke-width:1;stroke-linecap:butt;stroke-linejoin:round;stroke-miterlimit:10;stroke-dasharray:none;marker-end:url(#Arrow2Mend);color-rendering:optimizeQuality;image-rendering:optimizeQuality;text-rendering:geometricPrecision"
     x1="569.78857"
     x2="569.78857"
     y1="50.635387"
     id="line203" />
  <line
     y2="79.426102"
     style="color-interpolation:linearRGB;fill:none;stroke:#d78825;stroke-width:1;stroke-linecap:butt;stroke-linejoin:round;stroke-miterlimit:10;stroke-dasharray:none;marker-end:url(#Arrow2Mend);color-rendering:optimizeQuality;image-rendering:optimizeQuality;text-rendering:geometricPrecision"
     x1="601.1604"
     x2="601.1604"
     y1="50.635387"
     id="line205" />
  <text
     xml:space="preserve"
     id="text4460"
     style="font-style:normal;font-variant:normal;font-weight:normal;font-stretch:normal;font-size:18.6667px;line-height:1.25;font-family:'Futura Std';-inkscape-font-specification:'Futura Std';word-spacing:0px;white-space:pre;shape-inside:url(#rect4462);fill:#d78825;fill-opacity:1"
     transform="translate(-35.14635,12)"><tspan
       x="350.45117"
       y="27.479459"
       id="tspan1114"><tspan
         style="stroke:none"
         id="tspan1112">Load</tspan></tspan></text>
  <text
     xml:space="preserve"
     id="text4460-0"
     style="font-style:normal;font-variant:normal;font-weight:normal;font-stretch:normal;font-size:18.6667px;line-height:1.25;font-family:'Futura Std';-inkscape-font-specification:'Futura Std';word-spacing:0px;white-space:pre;shape-inside:url(#rect4462-1);color-interpolation:auto;fill:#0071aa;fill-opacity:1;stroke:#000000;stroke-width:1;stroke-linecap:square;stroke-linejoin:miter;stroke-miterlimit:10;stroke-dasharray:none;stroke-dashoffset:0;stroke-opacity:1;color-rendering:auto;image-rendering:auto;shape-rendering:auto;text-rendering:auto"
     transform="translate(-78.770388,123.92195)"><tspan
       x="350.45117"
       y="27.479459"
       id="tspan1118"><tspan
         style="stroke:none"
         id="tspan1116">Deflected Beam</tspan></tspan></text>
  <path
     style="font-style:normal;font-weight:normal;font-size:12px;font-family:Dialog;color-interpolation:auto;fill:none;fill-opacity:1;stroke:#000000;stroke-width:1px;stroke-linecap:butt;stroke-linejoin:miter;stroke-miterlimit:10;stroke-dasharray:none;stroke-dashoffset:0;stroke-opacity:1;color-rendering:auto;image-rendering:auto;shape-rendering:auto;text-rendering:auto"
     d="m 581.13731,123.52172 h 41.44923"
     id="path2792" />
  <path
     style="font-style:normal;font-weight:normal;font-size:12px;font-family:Dialog;color-interpolation:auto;fill:none;fill-opacity:1;stroke:#000000;stroke-width:1px;stroke-linecap:butt;stroke-linejoin:miter;stroke-miterlimit:10;stroke-dasharray:none;stroke-dashoffset:0;stroke-opacity:1;color-rendering:auto;image-rendering:auto;shape-rendering:auto;text-rendering:auto"
     d="M 44.204344,123.5413 H 92.351775"
     id="path2096" />
  <path
     style="font-style:normal;font-weight:normal;font-size:12px;font-family:Dialog;color-interpolation:auto;fill:none;fill-opacity:1;stroke:#000000;stroke-width:1;stroke-linecap:butt;stroke-linejoin:miter;stroke-miterlimit:10;stroke-dasharray:none;stroke-dashoffset:0;stroke-opacity:1;color-rendering:auto;image-rendering:auto;shape-rendering:auto;text-rendering:auto"
     d="m 53.769249,123.76861 -7.1465,7.10795"
     id="path2845" />
  <path
     style="font-style:normal;font-weight:normal;font-size:12px;font-family:Dialog;color-interpolation:auto;fill:none;fill-opacity:1;stroke:#000000;stroke-width:1;stroke-linecap:butt;stroke-linejoin:miter;stroke-miterlimit:10;stroke-dasharray:none;stroke-dashoffset:0;stroke-opacity:1;color-rendering:auto;image-rendering:auto;shape-rendering:auto;text-rendering:auto"
     d="m 62.048978,123.76862 -7.146501,7.10795"
     id="path2845-7" />
  <path
     style="font-style:normal;font-weight:normal;font-size:12px;font-family:Dialog;color-interpolation:auto;fill:none;fill-opacity:1;stroke:#000000;stroke-width:1;stroke-linecap:butt;stroke-linejoin:miter;stroke-miterlimit:10;stroke-dasharray:none;stroke-dashoffset:0;stroke-opacity:1;color-rendering:auto;image-rendering:auto;shape-rendering:auto;text-rendering:auto"
     d="m 70.328705,123.76862 -7.1465,7.10795"
     id="path2845-5" />
  <path
     style="font-style:normal;font-weight:normal;font-size:12px;font-family:Dialog;color-interpolation:auto;fill:none;fill-opacity:1;stroke:#000000;stroke-width:1;stroke-linecap:butt;stroke-linejoin:miter;stroke-miterlimit:10;stroke-dasharray:none;stroke-dashoffset:0;stroke-opacity:1;color-rendering:auto;image-rendering:auto;shape-rendering:auto;text-rendering:auto"
     d="m 78.608439,123.76861 -7.1465,7.10795"
     id="path2845-9" />
  <path
     style="font-style:normal;font-weight:normal;font-size:12px;font-family:Dialog;color-interpolation:auto;fill:none;fill-opacity:1;stroke:#000000;stroke-width:1;stroke-linecap:butt;stroke-linejoin:miter;stroke-miterlimit:10;stroke-dasharray:none;stroke-dashoffset:0;stroke-opacity:1;color-rendering:auto;image-rendering:auto;shape-rendering:auto;text-rendering:auto"
     d="m 86.888164,123.76861 -7.1465,7.10795"
     id="path2845-3" />
  <path
     style="font-style:normal;font-weight:normal;font-size:12px;font-family:Dialog;color-interpolation:auto;fill:none;fill-opacity:1;stroke:#000000;stroke-width:1;stroke-linecap:butt;stroke-linejoin:miter;stroke-miterlimit:10;stroke-dasharray:none;stroke-dashoffset:0;stroke-opacity:1;color-rendering:auto;image-rendering:auto;shape-rendering:auto;text-rendering:auto"
     d="m 603.5666,123.80505 -7.1465,7.10795"
     id="path2845-5-9" />
  <path
     style="font-style:normal;font-weight:normal;font-size:12px;font-family:Dialog;color-interpolation:auto;fill:none;fill-opacity:1;stroke:#000000;stroke-width:1;stroke-linecap:butt;stroke-linejoin:miter;stroke-miterlimit:10;stroke-dasharray:none;stroke-dashoffset:0;stroke-opacity:1;color-rendering:auto;image-rendering:auto;shape-rendering:auto;text-rendering:auto"
     d="m 611.84634,123.80504 -7.1465,7.10795"
     id="path2845-9-2" />
  <path
     style="font-style:normal;font-weight:normal;font-size:12px;font-family:Dialog;color-interpolation:auto;fill:none;fill-opacity:1;stroke:#000000;stroke-width:1;stroke-linecap:butt;stroke-linejoin:miter;stroke-miterlimit:10;stroke-dasharray:none;stroke-dashoffset:0;stroke-opacity:1;color-rendering:auto;image-rendering:auto;shape-rendering:auto;text-rendering:auto"
     d="m 620.12606,123.80504 -7.1465,7.10795"
     id="path2845-3-8" />
  <path
     style="font-style:normal;font-weight:normal;font-size:12px;font-family:Dialog;color-interpolation:auto;fill:none;fill-opacity:1;stroke:#000000;stroke-width:1;stroke-linecap:butt;stroke-linejoin:miter;stroke-miterlimit:10;stroke-dasharray:none;stroke-dashoffset:0;stroke-opacity:1;color-rendering:auto;image-rendering:auto;shape-rendering:auto;text-rendering:auto"
     d="m 587.00714,123.80504 -7.1465,7.10795"
     id="path2845-73" />
  <path
     style="font-style:normal;font-weight:normal;font-size:12px;font-family:Dialog;color-interpolation:auto;fill:none;fill-opacity:1;stroke:#000000;stroke-width:1;stroke-linecap:butt;stroke-linejoin:miter;stroke-miterlimit:10;stroke-dasharray:none;stroke-dashoffset:0;stroke-opacity:1;color-rendering:auto;image-rendering:auto;shape-rendering:auto;text-rendering:auto"
     d="m 595.28687,123.80505 -7.1465,7.10795"
     id="path2845-7-5" />
</svg>
