<?xml version="1.0" encoding="UTF-8" standalone="no"?>
<svg
   style="font-style:normal;font-weight:normal;font-size:12px;font-family:Dialog;color-interpolation:auto;fill:#000000;fill-opacity:1;stroke:#000000;stroke-width:1;stroke-linecap:square;stroke-linejoin:miter;stroke-miterlimit:10;stroke-dasharray:none;stroke-dashoffset:0;stroke-opacity:1;color-rendering:auto;image-rendering:auto;shape-rendering:auto;text-rendering:auto"
   width="282.94022"
   height="175.24947"
   version="1.1"
   id="svg17"
   sodipodi:docname="stressStrainCurve.svg"
   inkscape:version="1.1.1 (3bf5ae0d25, 2021-09-20)"
   inkscape:export-filename="D:\MW\OneDrive - MathWorks\Projects\2022-04-MechanicsOfMaterials\Content\SupportingFiles\Part1StressStrain\stressStrainCurve.png"
   inkscape:export-xdpi="322.32959"
   inkscape:export-ydpi="322.32959"
   xmlns:inkscape="http://www.inkscape.org/namespaces/inkscape"
   xmlns:sodipodi="http://sodipodi.sourceforge.net/DTD/sodipodi-0.dtd"
   xmlns="http://www.w3.org/2000/svg"
   xmlns:svg="http://www.w3.org/2000/svg"
   xmlns:ns2="http://www.iki.fi/pav/software/textext/">
  <sodipodi:namedview
     id="namedview19"
     pagecolor="#ffffff"
     bordercolor="#666666"
     borderopacity="1.0"
     inkscape:pageshadow="2"
     inkscape:pageopacity="0.0"
     inkscape:pagecheckerboard="0"
     showgrid="false"
     inkscape:zoom="3.2279985"
     inkscape:cx="84.417635"
     inkscape:cy="125.46474"
     inkscape:window-width="2373"
     inkscape:window-height="2018"
     inkscape:window-x="6"
     inkscape:window-y="10"
     inkscape:window-maximized="0"
     inkscape:current-layer="svg17"
     fit-margin-top="0"
     fit-margin-left="0"
     fit-margin-right="0"
     fit-margin-bottom="0"
     inkscape:snap-global="true" />
  <path
     style="fill:none;stroke:#000000;stroke-width:1px;stroke-linecap:butt;stroke-linejoin:miter;stroke-opacity:0.484517"
     d="M 88.417843,84.78963 H 42.286472"
     id="path40955"
     sodipodi:nodetypes="cc" />
  <rect
     style="fill:#ffffff;fill-opacity:0.0965392;stroke:none;stroke-width:2.18104;stroke-linecap:square;stroke-linejoin:round;stroke-miterlimit:10;stroke-opacity:0.415301"
     id="rect29177"
     width="282.94022"
     height="175.24947"
     x="0"
     y="0" />
  <!--Generated by the Batik Graphics2D SVG Generator-->
  <defs
     id="genericDefs">
    <marker
       style="overflow:visible"
       id="DiamondS"
       refX="0"
       refY="0"
       orient="auto"
       inkscape:stockid="DiamondS"
       inkscape:isstock="true">
      <path
         transform="scale(0.2)"
         style="fill:context-stroke;fill-rule:evenodd;stroke:context-stroke;stroke-width:1pt"
         d="M 0,-7.0710768 -7.0710894,0 0,7.0710589 7.0710462,0 Z"
         id="path1630" />
    </marker>
    <marker
       style="overflow:visible"
       id="EmptyDiamondS"
       refX="0"
       refY="0"
       orient="auto"
       inkscape:stockid="EmptyDiamondS"
       inkscape:isstock="true">
      <path
         transform="scale(0.2)"
         style="fill:context-fill;fill-rule:evenodd;stroke:context-stroke;stroke-width:1pt"
         d="M 0,-7.0710768 -7.0710894,0 0,7.0710589 7.0710462,0 Z"
         id="path1657" />
    </marker>
    <marker
       style="overflow:visible"
       id="EmptyDiamondMstart"
       refX="0"
       refY="0"
       orient="auto"
       inkscape:stockid="EmptyDiamondMstart"
       inkscape:isstock="true">
      <path
         transform="matrix(0.4,0,0,0.4,2.6,0)"
         style="fill:context-fill;fill-rule:evenodd;stroke:context-stroke;stroke-width:1pt"
         d="M 0,-7.0710768 -7.0710894,0 0,7.0710589 7.0710462,0 Z"
         id="path1663" />
    </marker>
    <marker
       style="overflow:visible"
       id="CurveOut"
       refX="0"
       refY="0"
       orient="auto"
       inkscape:stockid="CurveOut"
       inkscape:isstock="true">
      <path
         transform="scale(0.6)"
         style="fill:none;fill-rule:evenodd;stroke:context-stroke;stroke-width:1pt"
         d="m -5.4129913,-5.0456926 c 2.76,0 4.99999999,2.24 4.99999999,5.00000002 0,2.75999998 -2.23999999,4.99999998 -4.99999999,4.99999998"
         id="path1732" />
    </marker>
    <marker
       style="overflow:visible"
       orient="auto"
       refY="0"
       refX="0"
       id="RazorWire"
       inkscape:stockid="RazorWire"
       inkscape:isstock="true">
      <path
         d="m 0.02272727,-0.74009011 v 1.4375 L -7.7585227,3.0099099 H 10.678977 L 3.4914773,0.69740989 v -1.4375 L 10.741477,-2.8963401 H -7.7272727 Z"
         style="fill:#808080;fill-opacity:1;fill-rule:evenodd;stroke:context-stroke;stroke-width:0.1pt"
         transform="scale(0.8)"
         id="path1777" />
    </marker>
    <marker
       style="overflow:visible"
       id="marker1806"
       refX="0"
       refY="0"
       orient="auto"
       inkscape:stockid="TriangleOutM"
       inkscape:isstock="true">
      <path
         transform="scale(0.4)"
         style="fill:context-stroke;fill-rule:evenodd;stroke:context-stroke;stroke-width:1pt"
         d="M 5.77,0 -2.88,5 V -5 Z"
         id="path1690" />
    </marker>
    <marker
       style="overflow:visible"
       id="TriangleInM"
       refX="0"
       refY="0"
       orient="auto"
       inkscape:stockid="TriangleInM"
       inkscape:isstock="true">
      <path
         transform="scale(-0.4)"
         style="fill:context-stroke;fill-rule:evenodd;stroke:context-stroke;stroke-width:1pt"
         d="M 5.77,0 -2.88,5 V -5 Z"
         id="path1151" />
    </marker>
    <marker
       style="overflow:visible"
       id="marker2523"
       refX="0"
       refY="0"
       orient="auto"
       inkscape:stockid="TriangleOutM"
       inkscape:isstock="true">
      <path
         transform="scale(0.4)"
         style="fill:context-stroke;fill-rule:evenodd;stroke:context-stroke;stroke-width:1pt"
         d="M 5.77,0 -2.88,5 V -5 Z"
         id="path1160" />
    </marker>
    <marker
       style="overflow:visible"
       id="DiamondLend"
       refX="0"
       refY="0"
       orient="auto"
       inkscape:stockid="DiamondLend"
       inkscape:isstock="true">
      <path
         transform="matrix(0.8,0,0,0.8,-5.6,0)"
         style="fill:context-stroke;fill-rule:evenodd;stroke:context-stroke;stroke-width:1pt"
         d="M 0,-7.0710768 -7.0710894,0 0,7.0710589 7.0710462,0 Z"
         id="path1112" />
    </marker>
    <marker
       style="overflow:visible"
       id="Arrow2Send"
       refX="0"
       refY="0"
       orient="auto"
       inkscape:stockid="Arrow2Send"
       inkscape:isstock="true">
      <path
         transform="matrix(-0.3,0,0,-0.3,0.69,0)"
         d="M 8.7185878,4.0337352 -2.2072895,0.01601326 8.7185884,-4.0017078 c -1.7454984,2.3720609 -1.7354408,5.6174519 -6e-7,8.035443 z"
         style="fill:context-stroke;fill-rule:evenodd;stroke:context-stroke;stroke-width:0.625;stroke-linejoin:round"
         id="path1048" />
    </marker>
    <marker
       id="ExperimentalArrow"
       refX="5"
       refY="3"
       orient="auto-start-reverse"
       inkscape:stockid="ExperimentalArrow"
       inkscape:isstock="true">
      <path
         style="fill:context-stroke"
         d="M 10,3 0,6 V 0 Z"
         id="path1268" />
    </marker>
    <marker
       style="overflow:visible"
       id="Tail"
       refX="0"
       refY="0"
       orient="auto"
       inkscape:stockid="Tail"
       inkscape:isstock="true">
      <g
         transform="scale(-1.2)"
         id="g1063">
        <path
           style="fill:none;fill-rule:evenodd;stroke:context-stroke;stroke-width:0.8;stroke-linecap:round"
           d="M -3.8048674,-3.9585227 0.54352094,0"
           id="path1051" />
        <path
           style="fill:none;fill-rule:evenodd;stroke:context-stroke;stroke-width:0.8;stroke-linecap:round"
           d="M -1.2866832,-3.9585227 3.0617053,0"
           id="path1053" />
        <path
           style="fill:none;fill-rule:evenodd;stroke:context-stroke;stroke-width:0.8;stroke-linecap:round"
           d="M 1.3053582,-3.9585227 5.6537466,0"
           id="path1055" />
        <path
           style="fill:none;fill-rule:evenodd;stroke:context-stroke;stroke-width:0.8;stroke-linecap:round"
           d="M -3.8048674,4.1775838 0.54352094,0.21974226"
           id="path1057" />
        <path
           style="fill:none;fill-rule:evenodd;stroke:context-stroke;stroke-width:0.8;stroke-linecap:round"
           d="M -1.2866832,4.1775838 3.0617053,0.21974226"
           id="path1059" />
        <path
           style="fill:none;fill-rule:evenodd;stroke:context-stroke;stroke-width:0.8;stroke-linecap:round"
           d="M 1.3053582,4.1775838 5.6537466,0.21974226"
           id="path1061" />
      </g>
    </marker>
    <marker
       style="overflow:visible"
       id="marker1286"
       refX="0"
       refY="0"
       orient="auto"
       inkscape:stockid="Arrow2Mend"
       inkscape:isstock="true">
      <path
         transform="scale(-0.6)"
         d="M 8.7185878,4.0337352 -2.2072895,0.01601326 8.7185884,-4.0017078 c -1.7454984,2.3720609 -1.7354408,5.6174519 -6e-7,8.035443 z"
         style="fill:context-stroke;fill-rule:evenodd;stroke:context-stroke;stroke-width:0.625;stroke-linejoin:round"
         id="path1284" />
    </marker>
    <marker
       style="overflow:visible"
       id="marker1276"
       refX="0"
       refY="0"
       orient="auto"
       inkscape:stockid="Arrow2Mend"
       inkscape:isstock="true">
      <path
         transform="scale(-0.6)"
         d="M 8.7185878,4.0337352 -2.2072895,0.01601326 8.7185884,-4.0017078 c -1.7454984,2.3720609 -1.7354408,5.6174519 -6e-7,8.035443 z"
         style="fill:context-stroke;fill-rule:evenodd;stroke:context-stroke;stroke-width:0.625;stroke-linejoin:round"
         id="path1042" />
    </marker>
    <marker
       style="overflow:visible"
       id="Arrow2Mstart"
       refX="0"
       refY="0"
       orient="auto"
       inkscape:stockid="Arrow2Mstart"
       inkscape:isstock="true">
      <path
         transform="scale(0.6)"
         d="M 8.7185878,4.0337352 -2.2072895,0.01601326 8.7185884,-4.0017078 c -1.7454984,2.3720609 -1.7354408,5.6174519 -6e-7,8.035443 z"
         style="fill:context-stroke;fill-rule:evenodd;stroke:context-stroke;stroke-width:0.625;stroke-linejoin:round"
         id="path5449" />
    </marker>
    <rect
       x="284.77051"
       y="154.21419"
       width="311.93323"
       height="41.182198"
       id="rect46707" />
    <rect
       x="318.06677"
       y="162.10014"
       width="258.48401"
       height="32.420029"
       id="rect40761" />
    <marker
       style="overflow:visible"
       id="marker1181"
       refX="0"
       refY="0"
       orient="auto"
       inkscape:stockid="Arrow2Mend"
       inkscape:isstock="true">
      <path
         transform="scale(-0.6)"
         d="M 8.7185878,4.0337352 -2.2072895,0.01601326 8.7185884,-4.0017078 c -1.7454984,2.3720609 -1.7354408,5.6174519 -6e-7,8.035443 z"
         style="fill:context-stroke;fill-rule:evenodd;stroke:context-stroke;stroke-width:0.625;stroke-linejoin:round"
         id="path1179" />
    </marker>
    <marker
       style="overflow:visible"
       id="Arrow2Mend"
       refX="0"
       refY="0"
       orient="auto"
       inkscape:stockid="Arrow2Mend"
       inkscape:isstock="true">
      <path
         transform="scale(-0.6)"
         d="M 8.7185878,4.0337352 -2.2072895,0.01601326 8.7185884,-4.0017078 c -1.7454984,2.3720609 -1.7354408,5.6174519 -6e-7,8.035443 z"
         style="fill:context-stroke;fill-rule:evenodd;stroke:context-stroke;stroke-width:0.625;stroke-linejoin:round"
         id="path904" />
    </marker>
    <marker
       style="overflow:visible"
       id="Arrow2Lend"
       refX="0"
       refY="0"
       orient="auto"
       inkscape:stockid="Arrow2Lend"
       inkscape:isstock="true">
      <path
         transform="matrix(-1.1,0,0,-1.1,-1.1,0)"
         d="M 8.7185878,4.0337352 -2.2072895,0.01601326 8.7185884,-4.0017078 c -1.7454984,2.3720609 -1.7354408,5.6174519 -6e-7,8.035443 z"
         style="fill:context-stroke;fill-rule:evenodd;stroke:context-stroke;stroke-width:0.625;stroke-linejoin:round"
         id="path898" />
    </marker>
    <marker
       style="overflow:visible"
       id="TriangleOutM"
       refX="0"
       refY="0"
       orient="auto"
       inkscape:stockid="TriangleOutM"
       inkscape:isstock="true">
      <path
         transform="scale(0.4)"
         style="fill:context-stroke;fill-rule:evenodd;stroke:context-stroke;stroke-width:1pt"
         d="M 5.77,0 -2.88,5 V -5 Z"
         id="path1022" />
    </marker>
    <marker
       style="overflow:visible"
       id="Arrow1Mend"
       refX="0"
       refY="0"
       orient="auto"
       inkscape:stockid="Arrow1Mend"
       inkscape:isstock="true">
      <path
         transform="matrix(-0.4,0,0,-0.4,-4,0)"
         style="fill:context-stroke;fill-rule:evenodd;stroke:context-stroke;stroke-width:1pt"
         d="M 0,0 5,-5 -12.5,0 5,5 Z"
         id="path886" />
    </marker>
    <marker
       style="overflow:visible"
       id="Arrow1Lend"
       refX="0"
       refY="0"
       orient="auto"
       inkscape:stockid="Arrow1Lend"
       inkscape:isstock="true">
      <path
         transform="matrix(-0.8,0,0,-0.8,-10,0)"
         style="fill:context-stroke;fill-rule:evenodd;stroke:context-stroke;stroke-width:1pt"
         d="M 0,0 5,-5 -12.5,0 5,5 Z"
         id="path880" />
    </marker>
    <marker
       style="overflow:visible"
       id="Arrow2Mend-4"
       refX="0"
       refY="0"
       orient="auto"
       inkscape:stockid="Arrow2Mend"
       inkscape:isstock="true">
      <path
         transform="scale(-0.6)"
         d="M 8.7185878,4.0337352 -2.2072895,0.01601326 8.7185884,-4.0017078 c -1.7454984,2.3720609 -1.7354408,5.6174519 -6e-7,8.035443 z"
         style="fill:context-stroke;fill-rule:evenodd;stroke:context-stroke;stroke-width:0.625;stroke-linejoin:round"
         id="path904-6" />
    </marker>
    <marker
       style="overflow:visible"
       id="Arrow2Mend-4-8"
       refX="0"
       refY="0"
       orient="auto"
       inkscape:stockid="Arrow2Mend"
       inkscape:isstock="true">
      <path
         transform="scale(-0.6)"
         d="M 8.7185878,4.0337352 -2.2072895,0.01601326 8.7185884,-4.0017078 c -1.7454984,2.3720609 -1.7354408,5.6174519 -6e-7,8.035443 z"
         style="fill:context-stroke;fill-rule:evenodd;stroke:context-stroke;stroke-width:0.625;stroke-linejoin:round"
         id="path904-6-7" />
    </marker>
    <marker
       style="overflow:visible"
       id="Arrow2Mend-0"
       refX="0"
       refY="0"
       orient="auto"
       inkscape:stockid="Arrow2Mend"
       inkscape:isstock="true">
      <path
         transform="scale(-0.6)"
         d="M 8.7185878,4.0337352 -2.2072895,0.01601326 8.7185884,-4.0017078 c -1.7454984,2.3720609 -1.7354408,5.6174519 -6e-7,8.035443 z"
         style="fill:context-stroke;fill-rule:evenodd;stroke:context-stroke;stroke-width:0.625;stroke-linejoin:round"
         id="path904-5" />
    </marker>
    <rect
       x="284.77051"
       y="154.21419"
       width="311.93323"
       height="41.182198"
       id="rect46707-3" />
    <rect
       x="284.77051"
       y="154.21419"
       width="311.93323"
       height="41.182198"
       id="rect46707-5" />
    <rect
       x="284.77051"
       y="154.21419"
       width="311.93323"
       height="41.182198"
       id="rect46707-31" />
    <marker
       style="overflow:visible"
       id="Arrow2Mend-3"
       refX="0"
       refY="0"
       orient="auto"
       inkscape:stockid="Arrow2Mend"
       inkscape:isstock="true">
      <path
         transform="scale(-0.6)"
         d="M 8.7185878,4.0337352 -2.2072895,0.01601326 8.7185884,-4.0017078 c -1.7454984,2.3720609 -1.7354408,5.6174519 -6e-7,8.035443 z"
         style="fill:context-stroke;fill-rule:evenodd;stroke:context-stroke;stroke-width:0.625;stroke-linejoin:round"
         id="path904-1" />
    </marker>
    <marker
       style="overflow:visible"
       id="Arrow2Mend-2"
       refX="0"
       refY="0"
       orient="auto"
       inkscape:stockid="Arrow2Mend"
       inkscape:isstock="true">
      <path
         transform="scale(-0.6)"
         d="M 8.7185878,4.0337352 -2.2072895,0.01601326 8.7185884,-4.0017078 c -1.7454984,2.3720609 -1.7354408,5.6174519 -6e-7,8.035443 z"
         style="fill:context-stroke;fill-rule:evenodd;stroke:context-stroke;stroke-width:0.625;stroke-linejoin:round"
         id="path904-9" />
    </marker>
    <marker
       style="overflow:visible"
       id="Arrow2Mend-3-2"
       refX="0"
       refY="0"
       orient="auto"
       inkscape:stockid="Arrow2Mend"
       inkscape:isstock="true">
      <path
         transform="scale(-0.6)"
         d="M 8.7185878,4.0337352 -2.2072895,0.01601326 8.7185884,-4.0017078 c -1.7454984,2.3720609 -1.7354408,5.6174519 -6e-7,8.035443 z"
         style="fill:context-stroke;fill-rule:evenodd;stroke:context-stroke;stroke-width:0.625;stroke-linejoin:round"
         id="path904-1-6" />
    </marker>
    <rect
       x="284.77051"
       y="154.21419"
       width="311.93323"
       height="41.182198"
       id="rect46707-31-2" />
    <rect
       x="284.77051"
       y="154.21419"
       width="311.93323"
       height="41.182198"
       id="rect46707-3-6" />
    <marker
       style="overflow:visible"
       id="Arrow2Mend-2-1"
       refX="0"
       refY="0"
       orient="auto"
       inkscape:stockid="Arrow2Mend"
       inkscape:isstock="true">
      <path
         transform="scale(-0.6)"
         d="M 8.7185878,4.0337352 -2.2072895,0.01601326 8.7185884,-4.0017078 c -1.7454984,2.3720609 -1.7354408,5.6174519 -6e-7,8.035443 z"
         style="fill:context-stroke;fill-rule:evenodd;stroke:context-stroke;stroke-width:0.625;stroke-linejoin:round"
         id="path904-9-7" />
    </marker>
    <marker
       style="overflow:visible"
       id="Arrow2Mend-3-2-6"
       refX="0"
       refY="0"
       orient="auto"
       inkscape:stockid="Arrow2Mend"
       inkscape:isstock="true">
      <path
         transform="scale(-0.6)"
         d="M 8.7185878,4.0337352 -2.2072895,0.01601326 8.7185884,-4.0017078 c -1.7454984,2.3720609 -1.7354408,5.6174519 -6e-7,8.035443 z"
         style="fill:context-stroke;fill-rule:evenodd;stroke:context-stroke;stroke-width:0.625;stroke-linejoin:round"
         id="path904-1-6-7" />
    </marker>
    <g
       id="id-ea40f065-77b5-4c9d-8846-b440bbea54ea-2">
      <symbol
         overflow="visible"
         id="id-fb5a1114-9a8b-4928-818b-db72d0b09cfe-0">
        <path
           style="stroke:none;stroke-width:0"
           d=""
           id="id-aa941776-e1ce-45d1-8d81-009c92f33a0c-5" />
      </symbol>
      <symbol
         overflow="visible"
         id="id-cc0b54ef-b368-451c-af87-def5e25279ff-7">
        <path
           style="stroke:none;stroke-width:0"
           d="M 3.734375,-6.03125 C 3.8125,-6.390625 3.84375,-6.5 4.78125,-6.5 c 0.296875,0 0.375,0 0.375,-0.1875 0,-0.125 -0.109375,-0.125 -0.15625,-0.125 -0.328125,0 -1.140625,0.03125 -1.46875,0.03125 -0.296875,0 -1.03125,-0.03125 -1.328125,-0.03125 -0.0625,0 -0.1875,0 -0.1875,0.203125 0,0.109375 0.09375,0.109375 0.28125,0.109375 0.015625,0 0.203125,0 0.375,0.015625 0.171875,0.03125 0.265625,0.03125 0.265625,0.171875 0,0.03125 0,0.0625 -0.03125,0.1875 L 1.5625,-0.78125 c -0.09375,0.390625 -0.109375,0.46875 -0.90625,0.46875 -0.171875,0 -0.265625,0 -0.265625,0.203125 C 0.390625,0 0.484375,0 0.65625,0 h 4.625 C 5.515625,0 5.515625,0 5.578125,-0.171875 L 6.375,-2.328125 c 0.03125,-0.109375 0.03125,-0.125 0.03125,-0.140625 0,-0.03125 -0.03125,-0.109375 -0.109375,-0.109375 -0.09375,0 -0.109375,0.0625 -0.171875,0.21875 -0.34375,0.90625 -0.78125,2.046875 -2.5,2.046875 H 2.6875 c -0.140625,0 -0.171875,0 -0.21875,0 -0.109375,-0.015625 -0.140625,-0.03125 -0.140625,-0.109375 0,-0.03125 0,-0.046875 0.046875,-0.21875 z m 0,0"
           id="id-ca4b7b2e-8c5c-47b9-9b6c-13e2ce6e5be0-5" />
      </symbol>
      <symbol
         overflow="visible"
         id="id-6e1e60da-bb73-4f43-99cf-ab84f4c9c92e-0">
        <path
           style="stroke:none;stroke-width:0"
           d=""
           id="id-03445793-f9d7-4d88-a0ab-78632eca4a0f-9" />
      </symbol>
      <symbol
         overflow="visible"
         id="id-66583f9c-4650-40d8-9a9d-be1f49566883-7">
        <path
           style="stroke:none;stroke-width:0"
           d="M 3.59375,-2.21875 C 3.59375,-2.984375 3.5,-3.546875 3.1875,-4.03125 2.96875,-4.34375 2.53125,-4.625 1.984375,-4.625 c -1.625,0 -1.625,1.90625 -1.625,2.40625 0,0.5 0,2.359375 1.625,2.359375 1.609375,0 1.609375,-1.859375 1.609375,-2.359375 z M 1.984375,-0.0625 c -0.328125,0 -0.75,-0.1875 -0.890625,-0.75 C 1,-1.21875 1,-1.796875 1,-2.3125 1,-2.828125 1,-3.359375 1.09375,-3.734375 1.25,-4.28125 1.6875,-4.4375 1.984375,-4.4375 c 0.375,0 0.734375,0.234375 0.859375,0.640625 0.109375,0.375 0.125,0.875 0.125,1.484375 0,0.515625 0,1.03125 -0.09375,1.46875 -0.140625,0.640625 -0.609375,0.78125 -0.890625,0.78125 z m 0,0"
           id="id-767f3349-4a3b-4dbb-b6e0-feb8eac4e15b-0" />
      </symbol>
    </g>
    <marker
       style="overflow:visible"
       id="Arrow2Mend-3-2-6-8"
       refX="0"
       refY="0"
       orient="auto"
       inkscape:stockid="Arrow2Mend"
       inkscape:isstock="true">
      <path
         transform="scale(-0.6)"
         d="M 8.7185878,4.0337352 -2.2072895,0.01601326 8.7185884,-4.0017078 c -1.7454984,2.3720609 -1.7354408,5.6174519 -6e-7,8.035443 z"
         style="fill:context-stroke;fill-rule:evenodd;stroke:context-stroke;stroke-width:0.625;stroke-linejoin:round"
         id="path904-1-6-7-1" />
    </marker>
    <rect
       x="284.77051"
       y="154.21419"
       width="311.93323"
       height="41.182198"
       id="rect46707-3-2" />
    <marker
       style="overflow:visible"
       id="marker2523-0"
       refX="0"
       refY="0"
       orient="auto"
       inkscape:stockid="TriangleOutM"
       inkscape:isstock="true">
      <path
         transform="scale(0.4)"
         style="fill:context-stroke;fill-rule:evenodd;stroke:context-stroke;stroke-width:1pt"
         d="M 5.77,0 -2.88,5 V -5 Z"
         id="path1160-3" />
    </marker>
    <marker
       style="overflow:visible"
       id="marker2523-4"
       refX="0"
       refY="0"
       orient="auto"
       inkscape:stockid="TriangleOutM"
       inkscape:isstock="true">
      <path
         transform="scale(0.4)"
         style="fill:context-stroke;fill-rule:evenodd;stroke:context-stroke;stroke-width:1pt"
         d="M 5.77,0 -2.88,5 V -5 Z"
         id="path1160-2" />
    </marker>
    <marker
       style="overflow:visible"
       id="marker2523-4-9"
       refX="0"
       refY="0"
       orient="auto"
       inkscape:stockid="TriangleOutM"
       inkscape:isstock="true">
      <path
         transform="scale(0.4)"
         style="fill:context-stroke;fill-rule:evenodd;stroke:context-stroke;stroke-width:1pt"
         d="M 5.77,0 -2.88,5 V -5 Z"
         id="path1160-2-0" />
    </marker>
    <defs
       id="defs1">
      <clipPath
         clipPathUnits="userSpaceOnUse"
         id="clipPath1">
        <path
           d="M 0,0 H 840 V 630 H 0 Z"
           id="path3" />
      </clipPath>
    </defs>
  </defs>
  <path
     style="fill:none;stroke:#d78825;stroke-width:1.25;stroke-linecap:butt;stroke-linejoin:miter;stroke-miterlimit:10;stroke-dasharray:none;stroke-opacity:0.415301"
     d="m 166.30988,54.572728 c 36.91064,-9.30981 72.33589,-25.30077 97.74618,-27.49131"
     id="path2378"
     sodipodi:nodetypes="cc" />
  <text
     xml:space="preserve"
     id="text40759"
     style="font-size:17.3333px;line-height:1.25;font-family:sans-serif;word-spacing:0px;white-space:pre;shape-inside:url(#rect40761)"
     transform="translate(-329.44137,-201.39274)" />
  <path
     style="fill:none;stroke:#d78825;stroke-width:1.25;stroke-linecap:butt;stroke-linejoin:miter;stroke-miterlimit:10;stroke-dasharray:none;stroke-opacity:1;marker-end:"
     d="m 46.268149,159.49971 39.13422,-70.811552 c 4.646842,-8.364316 7.06676,-1.47635 12.98122,-1.47635 h 9.524341 c 3.72393,0 47.80532,-39.070829 79.86927,-35.35327 32.06395,3.717559 61.3676,18.501667 74.30737,27.46732"
     id="path2134"
     sodipodi:nodetypes="ccsszc" />
  <g
     transform="matrix(1.33333,0,0,1.33333,32.780489,5.3797982)"
     ns2:version="1.6.1"
     ns2:texconverter="pdflatex"
     ns2:pdfconverter="inkscape"
     ns2:text="$\\sigma$"
     ns2:preamble="C:\Users\Work\AppData\Roaming\inkscape\extensions\textext\default_packages.tex"
     ns2:scale="1.0"
     ns2:alignment="middle center"
     ns2:stroke-to-path="0"
     ns2:inkscapeversion="1.1.1"
     ns2:jacobian_sqrt="1.33333"
     id="g15928">
    <defs
       id="id-40c7b59f-92e5-4a05-8d8e-5e3874ae71e7">
      <g
         id="id-60094521-ca50-4a79-b565-3762bc3c0d48">
        <symbol
           overflow="visible"
           id="id-0bd54024-0267-406e-b3e0-a5c868517c6c">
          <path
             style="stroke:none;stroke-width:0"
             d=""
             id="id-8c7b64ae-bcce-4f08-b7a7-556816c2c7c3" />
        </symbol>
        <symbol
           overflow="visible"
           id="id-6c210e1e-a57b-4ac5-84f7-f1bd7406f437">
          <path
             style="stroke:none;stroke-width:0"
             d="m 5.15625,-3.71875 c 0.140625,0 0.5,0 0.5,-0.34375 0,-0.234375 -0.21875,-0.234375 -0.390625,-0.234375 h -2.28125 c -1.5,0 -2.609375,1.640625 -2.609375,2.828125 0,0.875 0.59375,1.578125 1.5,1.578125 1.171875,0 2.5,-1.203125 2.5,-2.734375 0,-0.171875 0,-0.65625 -0.3125,-1.09375 z M 1.890625,-0.109375 C 1.390625,-0.109375 1,-0.46875 1,-1.1875 c 0,-0.296875 0.109375,-1.109375 0.46875,-1.703125 0.421875,-0.6875 1.015625,-0.828125 1.359375,-0.828125 0.828125,0 0.90625,0.65625 0.90625,0.96875 0,0.46875 -0.203125,1.28125 -0.53125,1.796875 -0.390625,0.578125 -0.9375,0.84375 -1.3125,0.84375 z m 0,0"
             id="id-d26207c0-706a-464a-8b4e-953ba5a76404" />
        </symbol>
      </g>
    </defs>
    <g
       id="id-da657257-b625-42a2-a415-72d92ad79d86"
       transform="translate(-149.087,-130.468)">
      <g
         style="fill:#000000;fill-opacity:1"
         id="id-d8266ebc-97fe-49f2-b7c0-02a5b4eaa68c">
        <g
           transform="translate(148.712,134.765)"
           id="g15924">
          <path
             style="stroke:none;stroke-width:0"
             d="m 5.15625,-3.71875 c 0.140625,0 0.5,0 0.5,-0.34375 0,-0.234375 -0.21875,-0.234375 -0.390625,-0.234375 h -2.28125 c -1.5,0 -2.609375,1.640625 -2.609375,2.828125 0,0.875 0.59375,1.578125 1.5,1.578125 1.171875,0 2.5,-1.203125 2.5,-2.734375 0,-0.171875 0,-0.65625 -0.3125,-1.09375 z M 1.890625,-0.109375 C 1.390625,-0.109375 1,-0.46875 1,-1.1875 c 0,-0.296875 0.109375,-1.109375 0.46875,-1.703125 0.421875,-0.6875 1.015625,-0.828125 1.359375,-0.828125 0.828125,0 0.90625,0.65625 0.90625,0.96875 0,0.46875 -0.203125,1.28125 -0.53125,1.796875 -0.390625,0.578125 -0.9375,0.84375 -1.3125,0.84375 z m 0,0"
             id="id-e94ac2e3-8efe-44ed-ad9b-3e885c6d2ad1" />
        </g>
      </g>
    </g>
  </g>
  <g
     transform="matrix(1.33333,0,0,1.33333,263.56923,163.79118)"
     ns2:version="1.6.1"
     ns2:texconverter="pdflatex"
     ns2:pdfconverter="inkscape"
     ns2:text="$\\epsilon$"
     ns2:preamble="C:\Users\Work\AppData\Roaming\inkscape\extensions\textext\default_packages.tex"
     ns2:scale="1.0"
     ns2:alignment="middle center"
     ns2:stroke-to-path="0"
     ns2:inkscapeversion="1.1.1"
     ns2:jacobian_sqrt="1.33333"
     id="g16186">
    <defs
       id="id-92e89f8a-4bdc-4431-8340-70c5ded01ef1">
      <g
         id="id-9285cb6c-bdea-4c98-860e-9793562f766e">
        <symbol
           overflow="visible"
           id="id-8695cbc9-63a5-4ff9-bacc-49a04314a62c">
          <path
             style="stroke:none;stroke-width:0"
             d=""
             id="id-8ad05abf-a35c-45ce-a3b7-2b114e05370a" />
        </symbol>
        <symbol
           overflow="visible"
           id="id-82baf8a3-f2d5-4ff2-91b1-45e43308141e">
          <path
             style="stroke:none;stroke-width:0"
             d="m 2.96875,-2.25 c 0.15625,0 0.34375,0 0.34375,-0.171875 C 3.3125,-2.5625 3.1875,-2.5625 3.015625,-2.5625 H 1.40625 c 0.234375,-0.84375 0.796875,-1.421875 1.703125,-1.421875 h 0.3125 c 0.171875,0 0.328125,0 0.328125,-0.171875 0,-0.140625 -0.125,-0.140625 -0.296875,-0.140625 H 3.09375 c -1.296875,0 -2.625,1 -2.625,2.515625 0,1.109375 0.75,1.890625 1.796875,1.890625 0.65625,0 1.296875,-0.40625 1.296875,-0.515625 0,-0.015625 0,-0.125 -0.09375,-0.125 -0.015625,0 -0.046875,0 -0.125,0.046875 -0.3125,0.203125 -0.6875,0.375 -1.046875,0.375 -0.578125,0 -1.078125,-0.421875 -1.078125,-1.296875 0,-0.34375 0.078125,-0.734375 0.109375,-0.84375 z m 0,0"
             id="id-72d31e87-d7b2-4854-8ad9-83ffba656465" />
        </symbol>
      </g>
    </defs>
    <g
       id="id-94265771-71d9-4439-b770-43a1d52f5a2a"
       transform="translate(-149.181,-130.468)">
      <g
         style="fill:#000000;fill-opacity:1"
         id="id-65fd8d65-5efe-4a5b-9be4-46669f5a39a3">
        <g
           transform="translate(148.712,134.765)"
           id="g16182">
          <path
             style="stroke:none;stroke-width:0"
             d="m 2.96875,-2.25 c 0.15625,0 0.34375,0 0.34375,-0.171875 C 3.3125,-2.5625 3.1875,-2.5625 3.015625,-2.5625 H 1.40625 c 0.234375,-0.84375 0.796875,-1.421875 1.703125,-1.421875 h 0.3125 c 0.171875,0 0.328125,0 0.328125,-0.171875 0,-0.140625 -0.125,-0.140625 -0.296875,-0.140625 H 3.09375 c -1.296875,0 -2.625,1 -2.625,2.515625 0,1.109375 0.75,1.890625 1.796875,1.890625 0.65625,0 1.296875,-0.40625 1.296875,-0.515625 0,-0.015625 0,-0.125 -0.09375,-0.125 -0.015625,0 -0.046875,0 -0.125,0.046875 -0.3125,0.203125 -0.6875,0.375 -1.046875,0.375 -0.578125,0 -1.078125,-0.421875 -1.078125,-1.296875 0,-0.34375 0.078125,-0.734375 0.109375,-0.84375 z m 0,0"
             id="id-1eb71a5d-453d-4dae-ba92-1a9da5a0d36f" />
        </g>
      </g>
    </g>
  </g>
  <path
     style="fill:none;stroke:#000000;stroke-width:1px;stroke-linecap:square;stroke-linejoin:miter;stroke-opacity:1;marker-end:url(#marker1806)"
     d="M 46.268149,159.49971 V 7.4760582"
     id="path1442"
     sodipodi:nodetypes="cc" />
  <path
     style="fill:none;stroke:#000000;stroke-width:1px;stroke-linecap:square;stroke-linejoin:miter;stroke-opacity:1;marker-end:url(#marker1806)"
     d="M 46.268149,159.49971 H 266.90377"
     id="path1444"
     sodipodi:nodetypes="cc" />
  <rect
     style="fill:#004b87;fill-opacity:0.0965392;stroke:none;stroke-width:1.92225;stroke-linecap:square;stroke-linejoin:round;stroke-miterlimit:10;stroke-opacity:0.415301"
     id="rect16355"
     width="42.089642"
     height="149.17609"
     x="46.268166"
     y="10.323628" />
  <text
     xml:space="preserve"
     style="font-size:9.33333px;line-height:1.25;font-family:sans-serif;word-spacing:0px"
     x="49.569569"
     y="26.117548"
     id="text24465"><tspan
       sodipodi:role="line"
       id="tspan24463"
       x="49.569569"
       y="26.117548"
       style="font-style:normal;font-variant:normal;font-weight:normal;font-stretch:normal;font-size:9.33333px;font-family:'Futura Std';-inkscape-font-specification:'Futura Std';stroke:none">Elastic</tspan><tspan
       sodipodi:role="line"
       x="49.569569"
       y="38.135796"
       style="font-style:normal;font-variant:normal;font-weight:normal;font-stretch:normal;font-size:9.33333px;font-family:'Futura Std';-inkscape-font-specification:'Futura Std';stroke:none"
       id="tspan57035">behavior</tspan></text>
  <text
     xml:space="preserve"
     style="font-style:normal;font-weight:normal;font-size:9.33333px;line-height:1.25;font-family:sans-serif;word-spacing:0px;color-interpolation:auto;fill:#000000;fill-opacity:1;stroke:#000000;stroke-width:1;stroke-linecap:square;stroke-linejoin:miter;stroke-miterlimit:10;stroke-dasharray:none;stroke-dashoffset:0;stroke-opacity:1;color-rendering:auto;image-rendering:auto;shape-rendering:auto;text-rendering:auto"
     x="246.3112"
     y="90.437698"
     id="text24465-8"><tspan
       sodipodi:role="line"
       id="tspan24463-2"
       x="246.3112"
       y="90.437698"
       style="font-style:normal;font-variant:normal;font-weight:normal;font-stretch:normal;font-size:9.33333px;font-family:'Futura Std';-inkscape-font-specification:'Futura Std';stroke:none">Fracture</tspan></text>
  <text
     xml:space="preserve"
     style="font-style:normal;font-weight:normal;font-size:9.33333px;line-height:1.25;font-family:sans-serif;word-spacing:0px;color-interpolation:auto;fill:#000000;fill-opacity:1;stroke:#000000;stroke-width:1;stroke-linecap:square;stroke-linejoin:miter;stroke-miterlimit:10;stroke-dasharray:none;stroke-dashoffset:0;stroke-opacity:1;color-rendering:auto;image-rendering:auto;shape-rendering:auto;text-rendering:auto"
     x="190.35623"
     y="31.86594"
     id="text24465-8-9"><tspan
       sodipodi:role="line"
       id="tspan24463-2-5"
       x="190.35623"
       y="31.86594"
       style="font-style:normal;font-variant:normal;font-weight:normal;font-stretch:normal;font-size:9.33333px;font-family:'Futura Std';-inkscape-font-specification:'Futura Std';stroke:none">True stress</tspan></text>
  <text
     xml:space="preserve"
     style="font-style:normal;font-weight:normal;font-size:9.33333px;line-height:1.25;font-family:sans-serif;word-spacing:0px;color-interpolation:auto;fill:#000000;fill-opacity:1;stroke:#000000;stroke-width:1;stroke-linecap:square;stroke-linejoin:miter;stroke-miterlimit:10;stroke-dasharray:none;stroke-dashoffset:0;stroke-opacity:1;color-rendering:auto;image-rendering:auto;shape-rendering:auto;text-rendering:auto"
     x="6.2543802"
     y="82.924522"
     id="text24465-3"><tspan
       sodipodi:role="line"
       id="tspan24463-5"
       x="6.2543802"
       y="82.924522"
       style="font-style:normal;font-variant:normal;font-weight:normal;font-stretch:normal;font-size:9.33333px;font-family:'Futura Std';-inkscape-font-specification:'Futura Std';stroke:none">Yield </tspan><tspan
       sodipodi:role="line"
       x="6.2543802"
       y="94.942772"
       style="font-style:normal;font-variant:normal;font-weight:normal;font-stretch:normal;font-size:9.33333px;font-family:'Futura Std';-inkscape-font-specification:'Futura Std';stroke:none"
       id="tspan39268">strength</tspan></text>
  <path
     style="fill:none;stroke:#626262;stroke-width:1px;stroke-linecap:round;stroke-linejoin:miter;stroke-opacity:1"
     d="m 259.23572,76.518004 5.03407,5.266421"
     id="path1201"
     sodipodi:nodetypes="cc" />
  <path
     style="font-style:normal;font-weight:normal;font-size:12px;font-family:Dialog;color-interpolation:auto;fill:none;fill-opacity:1;stroke:#626262;stroke-width:1px;stroke-linecap:round;stroke-linejoin:miter;stroke-miterlimit:10;stroke-dasharray:none;stroke-dashoffset:0;stroke-opacity:1;color-rendering:auto;image-rendering:auto;shape-rendering:auto;text-rendering:auto"
     d="m 264.26979,76.518004 -5.03407,5.266421"
     id="path1201-9"
     sodipodi:nodetypes="cc" />
</svg>
